<?xml version="1.0" encoding="utf-8"?>
<!-- Generator: Adobe Illustrator 26.3.1, SVG Export Plug-In . SVG Version: 6.00 Build 0)  -->
<svg version="1.1" id="Ebene_1" xmlns="http://www.w3.org/2000/svg" xmlns:xlink="http://www.w3.org/1999/xlink" x="0px" y="0px"
	 viewBox="0 0 500 500" style="enable-background:new 0 0 500 500;" xml:space="preserve">
<style type="text/css">
	.st0{fill:#00843D;}
</style>
<path class="st0" d="M452.5,339.8h-44.8c0.3-0.3,0.7-0.3,1-0.3c36.5-19.7,49.9-65.6,30.1-102.1c-13.1-24.4-38.5-39.5-65.9-39.5l0,0
	c-7.7,0-15.7,1.3-23.1,3.7l-30.8-72.3h26.8c3.7,0,7,3,7,6.7c0,3.7-3,7-6.7,7h-0.3c-3.7,0-6.7,3.3-6.7,7s3,6.7,6.7,6.7
	c11.4,0,20.4-9,20.4-20.4c0-11.7-9-20.8-20.4-20.8h-37.1c-3.7,0-6.7,3-6.7,6.7c0,1,0.3,2,0.7,2.7l19.4,45.2H202.8V143h20.4
	c3.7,0,6.7-3.3,6.7-7c0-3.7-3-6.7-6.7-6.7h-54.6c-3.7,0-7,3-7,6.7c0,3.7,3,7,6.7,7h0.3h20.4v32.1l-23.4,33.1
	c-35.8-21.1-81.7-9-102.4,26.8S54.5,317,90,338.1c1,0.7,2,1,3,1.7H47.5c-2.7,0-5,2-5,5c0,3,2.3,5,5,5h405c2.7,0,5-2.3,5-5
	S455.2,339.8,452.5,339.8z M366.8,275.8c1.3,3.3,5.4,5,9,3.7c3.3-1.3,5-5.4,3.7-9l-24.1-56.2c32.5-9.7,66.6,8.7,76.3,41.2
	c9.7,32.5-8.4,66.9-40.8,76.6c-5.7,1.7-11.7,2.7-17.7,2.7c-33.8,0-61.2-27.4-61.2-61.6c0-22.1,11.7-42.8,31.1-53.5L366.8,275.8z
	 M317.3,184.1l-52.9,61.6c-7-4-15.4-4.7-23.1-2.3l-33.8-59.2H317.3z M250.3,266.1c-3.7,0-6.7,3-6.7,6.7v15.7
	c-8.7-3.7-12.4-13.7-8.7-22.4c1.3-3.3,4-6,7-8c0,0,0,0,0.3,0l0,0c2.7-1.3,5.4-2.3,8.4-2.3c9.4,0,17.1,7.7,17.1,17.1
	c0,6.7-4,13.1-10.4,15.7l0,0v-15.7C257,269.1,254,266.1,250.3,266.1z M195.1,189.8l34.5,60.6c-4.7,4.4-7.7,9.7-9,15.7h-18.1
	c-1.7-19.4-11-37.5-25.8-50.2L195.1,189.8z M168.7,227.3c11,10,18.4,23.8,20.1,38.8h-47.9L168.7,227.3z M66.3,273.2
	c0-34.1,27.4-61.6,61.2-61.6c10.4,0,20.7,2.7,30.1,7.7l-35.5,49.9c-2.3,3-1.3,7.4,1.7,9.7c1,0.7,2.7,1.3,4,1.3h60.9
	c-3.3,31.1-29.8,54.9-60.9,54.9C94,334.7,66.6,307,66.3,273.2z M192.4,311c5.7-9.4,9-20.1,10-31.1h18.1
	c2.7,11.4,11.7,20.4,23.1,23.1v11h-6.7c-3.7,0-7,3-7,6.7c0,3.7,3,7,6.7,7h0.3h27.1c3.7,0,6.7-3.3,6.7-7c0-3.7-3-6.7-6.7-6.7h-6.7
	v-11c16.4-3.7,26.8-20.1,23.1-36.5c-1-4.4-2.7-8.4-5.4-11.7l55.2-64.9l7,16.7c-36.5,19.7-49.9,65.6-30.1,102.1
	c7.4,13.7,18.4,24.1,31.1,30.8H162.6C174.7,333.4,185.1,323.7,192.4,311z"/>
</svg>
