<?xml version="1.0" encoding="utf-8"?>
<!-- Generator: Adobe Illustrator 27.0.1, SVG Export Plug-In . SVG Version: 6.00 Build 0)  -->
<svg version="1.1" id="Ebene_1" xmlns="http://www.w3.org/2000/svg" xmlns:xlink="http://www.w3.org/1999/xlink" x="0px" y="0px"
	 viewBox="0 0 30 29" style="enable-background:new 0 0 30 29;" xml:space="preserve">
<style type="text/css">
	.st0{fill:#FFA300;}
</style>
<path id="Pfad_973" class="st0" d="M29.4,1.8C27.4,0.6,25.2,0,22.9,0c-2.8,0.1-5.6,0.7-8.3,1.6c-2.4,0.9-5,1.4-7.6,1.5l0,0
	C5.5,3.2,4,2.8,2.6,2.1V1.3C2.6,0.6,2,0,1.3,0C0.6,0,0,0.6,0,1.3v26.4C0,28.4,0.6,29,1.3,29c0.7,0,1.3-0.6,1.3-1.3v-5.4
	c1.4,0.6,3,0.8,4.5,0.8c2.8-0.1,5.6-0.7,8.3-1.6c2.4-0.9,5-1.4,7.6-1.5c1.8,0,3.6,0.5,5.1,1.4c0.6,0.4,1.4,0.2,1.8-0.4
	c0.1-0.2,0.2-0.4,0.2-0.7V2.9C30,2.4,29.8,2,29.4,1.8z"/>
</svg>
