<?xml version="1.0" encoding="utf-8"?>
<!-- Generator: Adobe Illustrator 27.0.1, SVG Export Plug-In . SVG Version: 6.00 Build 0)  -->
<svg version="1.1" id="Ebene_1" xmlns="http://www.w3.org/2000/svg" xmlns:xlink="http://www.w3.org/1999/xlink" x="0px" y="0px"
	 viewBox="0 0 124 70" style="enable-background:new 0 0 124 70;" xml:space="preserve">
<style type="text/css">
	.st0{fill:#00843D;}
</style>
<path class="st0" d="M122.5,67h-13.4c0.1-0.1,0.2-0.1,0.3-0.1c10.9-5.9,14.9-19.6,9-30.5c-3.9-7.3-11.5-11.8-19.7-11.8l0,0
	c-2.3,0-4.7,0.4-6.9,1.1L82.6,4.1h8c1.1,0,2.1,0.9,2.1,2c0,1.1-0.9,2.1-2,2.1c0,0-0.1,0-0.1,0c-1.1,0-2,1-2,2.1c0,1.1,0.9,2,2,2
	c3.4,0,6.1-2.7,6.1-6.1C96.7,2.7,94,0,90.6,0H79.5c-1.1,0-2,0.9-2,2c0,0.3,0.1,0.6,0.2,0.8l5.8,13.5H47.9V8.2H54c1.1,0,2-1,2-2.1
	c0-1.1-0.9-2-2-2H37.7c-1.1,0-2.1,0.9-2.1,2c0,1.1,0.9,2.1,2,2.1c0,0,0.1,0,0.1,0h6.1v9.6l-7,9.9C26.1,21.4,12.4,25,6.2,35.7
	c-6.2,10.7-2.6,24.5,8,30.8c0.3,0.2,0.6,0.3,0.9,0.5H1.5C0.7,67,0,67.6,0,68.5S0.7,70,1.5,70h121c0.8,0,1.5-0.7,1.5-1.5
	S123.3,67,122.5,67z M96.9,47.9c0.4,1,1.6,1.5,2.7,1.1c1-0.4,1.5-1.6,1.1-2.7l-7.2-16.8c9.7-2.9,19.9,2.6,22.8,12.3
	c2.9,9.7-2.5,20-12.2,22.9c-1.7,0.5-3.5,0.8-5.3,0.8c-10.1,0-18.3-8.2-18.3-18.4c0-6.6,3.5-12.8,9.3-16L96.9,47.9z M82.1,20.5
	L66.3,38.9c-2.1-1.2-4.6-1.4-6.9-0.7L49.3,20.5H82.1z M62.1,45c-1.1,0-2,0.9-2,2v4.7c-2.6-1.1-3.7-4.1-2.6-6.7
	c0.4-1,1.2-1.8,2.1-2.4c0,0,0,0,0.1,0l0,0c0.8-0.4,1.6-0.7,2.5-0.7c2.8,0,5.1,2.3,5.1,5.1c0,2-1.2,3.9-3.1,4.7h0V47
	C64.1,45.9,63.2,45,62.1,45z M45.6,22.2l10.3,18.1c-1.4,1.3-2.3,2.9-2.7,4.7h-5.4c-0.5-5.8-3.3-11.2-7.7-15L45.6,22.2z M37.7,33.4
	c3.3,3,5.5,7.1,6,11.6H29.4L37.7,33.4z M7.1,47.1c0-10.2,8.2-18.4,18.3-18.4c3.1,0,6.2,0.8,9,2.3L23.8,45.9
	c-0.7,0.9-0.4,2.2,0.5,2.9c0.3,0.2,0.8,0.4,1.2,0.4h18.2c-1,9.3-8.9,16.4-18.2,16.4C15.4,65.5,7.2,57.2,7.1,47.1z M44.8,58.4
	c1.7-2.8,2.7-6,3-9.3h5.4c0.8,3.4,3.5,6.1,6.9,6.9v3.3h-2c-1.1,0-2.1,0.9-2.1,2c0,1.1,0.9,2.1,2,2.1c0,0,0.1,0,0.1,0h8.1
	c1.1,0,2-1,2-2.1c0-1.1-0.9-2-2-2h-2V56c4.9-1.1,8-6,6.9-10.9c-0.3-1.3-0.8-2.5-1.6-3.5l16.5-19.4l2.1,5c-10.9,5.9-14.9,19.6-9,30.5
	c2.2,4.1,5.5,7.2,9.3,9.2H35.9C39.5,65.1,42.6,62.2,44.8,58.4z"/>
</svg>
