<?xml version="1.0" encoding="utf-8"?>
<!-- Generator: Adobe Illustrator 27.0.1, SVG Export Plug-In . SVG Version: 6.00 Build 0)  -->
<svg version="1.1" id="Ebene_1" xmlns="http://www.w3.org/2000/svg" xmlns:xlink="http://www.w3.org/1999/xlink" x="0px" y="0px"
	 viewBox="0 0 90 90" style="enable-background:new 0 0 90 90;" xml:space="preserve">
<style type="text/css">
	.st0{fill:#00843D;}
</style>
<g>
	<path class="st0" d="M90,78.5V22.5c0-4.1-3.4-7.5-7.5-7.5h-4.6l3-3c2.2-2.2,2.2-5.7,0-7.8c0,0,0,0,0,0l-2.6-2.6
		c-2.2-2.1-5.6-2.1-7.8,0L57.1,15H13.1c-3.1,0-5.6,2.5-5.6,5.6v13.7l-7,7c-0.7,0.7-0.7,1.9,0,2.7l7,7v18.5c0,3.1,2.5,5.6,5.6,5.6
		h18.5l14.4,14.5c0.7,0.7,1.9,0.7,2.7,0c0,0,0,0,0,0l10.7-10.7c0.7-0.7,0.7-1.9,0-2.7L58.4,75H75v9.4c0,1,0.8,1.9,1.9,1.9h0h5.6
		c4.1,0,7.5-3.4,7.5-7.5C90,78.7,90,78.6,90,78.5z M44.1,34.9l3.5,3.5l-5.2,1.7L44.1,34.9z M45.9,31.4l20.7-20.7l5.1,5.1L51,36.6
		L45.9,31.4z M73.1,4.2c0.7-0.7,1.8-0.7,2.5,0l2.6,2.6c0.7,0.7,0.7,1.8,0,2.5l0,0l-3.9,3.9l-5.1-5.1L73.1,4.2z M13.1,71.2
		c-1,0-1.9-0.8-1.9-1.9V54.6l16.6,16.6L13.1,71.2z M47.4,85.5L4.5,42.6l8.1-8.1l5.1,5.1l-4,4l2.7,2.7l4-4l4.9,4.9l-4,4l2.7,2.7l4-4
		l4.8,4.9l-4,4l2.7,2.7l4-4l4.8,4.8l-4,4l2.7,2.7l4-4l4.9,4.9l-4,4l2.7,2.7l4-4l5.1,5.1L47.4,85.5z M54.6,71.2L13.9,30.5
		c-0.7-0.7-1.9-0.7-2.7,0l0,0v-9.9c0-1,0.8-1.9,1.9-1.9h40.2L41.9,30.1c-0.2,0.2-0.4,0.5-0.4,0.7l0,0l-3.9,11.7
		c-0.3,1,0.2,2,1.2,2.4c0.2,0.1,0.4,0.1,0.6,0.1v0h28.1v-3.8H50.9l0.7-0.2l0,0c0.3-0.1,0.5-0.2,0.7-0.4c0,0,0,0,0,0l21.8-21.8h8.3
		c2.1,0,3.7,1.7,3.7,3.8v49.8c-1.1-0.6-2.4-1-3.7-1c0,0,0,0,0,0v0H54.6z M82.5,82.5L82.5,82.5l-3.7,0V75h3.7c2.1,0,3.7,1.7,3.7,3.8
		C86.1,80.8,84.5,82.5,82.5,82.5z"/>
	<rect x="71.2" y="41.2" class="st0" width="3.7" height="3.8"/>
	<rect x="78.7" y="41.2" class="st0" width="3.7" height="3.8"/>
</g>
</svg>
