<?xml version="1.0" encoding="utf-8"?>
<!-- Generator: Adobe Illustrator 27.0.1, SVG Export Plug-In . SVG Version: 6.00 Build 0)  -->
<svg version="1.1" id="Ebene_1" xmlns="http://www.w3.org/2000/svg" xmlns:xlink="http://www.w3.org/1999/xlink" x="0px" y="0px"
	 viewBox="0 0 80 80" style="enable-background:new 0 0 80 80;" xml:space="preserve">
<style type="text/css">
	.st0{fill:#FFA300;}
	.st1{fill:#FFFFFF;}
</style>
<circle id="Ellipse_28" class="st0" cx="40" cy="40" r="40"/>
<path id="Pfad_920" class="st1" d="M34,49.3l3.8,1.6l-5.5,4.7L34,49.3z M59.5,27.7l-8.1,21.7c-0.4,0.9-0.8,1.8-1.3,2.6
	c-0.2,0.2-0.4,0.3-0.7,0.4c-0.7,0.1-1.3,0-1.9-0.2l-11.8-4.9L59.5,27.7z M54.8,24.7L25.1,42.8l-10.3-4.5c-0.3-0.1-0.5-0.3-0.6-0.6
	c-0.1-0.1-0.1-0.3,0-0.4c0.1-0.4,0.9-1.1,2.6-1.6c0,0,0,0,0,0l37.2-10.8L54.8,24.7z M63.4,19.6L63.4,19.6c-0.2,0-0.4,0-0.5,0.1
	l-9.7,2.8L16.1,33.2c0,0,0,0,0,0h0c-2.2,0.6-3.7,1.6-4.3,3.1c-0.3,0.8-0.3,1.6,0.1,2.4c0.4,0.7,1,1.4,1.7,1.7c0,0,0.1,0,0.1,0.1
	l10.5,4.6l2.4,7.4c0.2,0.7,0.9,1.1,1.5,0.9c0.7-0.2,1.1-0.9,0.9-1.5c0,0,0-0.1,0-0.1l-2.3-7l31.6-19.3L32.4,46.6c0,0,0,0,0,0
	c-0.3,0.2-0.5,0.6-0.5,0.9l-3,11.3c-0.2,0.7,0.2,1.4,0.9,1.5c0.4,0.1,0.8,0,1.1-0.3l0,0c0,0,0,0,0,0l9.5-8.1l6.2,2.6
	c0.1,0,0.1,0,0.2,0.1c1,0.3,2,0.4,3.1,0.3c0.8-0.1,1.6-0.5,2.1-1.1c0.8-1,1.3-2.1,1.7-3.2c0,0,0-0.1,0-0.1l10.8-28.9v0
	c0.2-0.4,0.2-1-0.1-1.4l0-0.1c0,0,0,0,0,0c0,0,0,0,0,0c0,0,0,0,0,0c0,0,0,0-0.1,0C64,19.7,63.7,19.6,63.4,19.6L63.4,19.6z"/>
</svg>
