<?xml version="1.0" encoding="utf-8"?>
<!-- Generator: Adobe Illustrator 27.0.1, SVG Export Plug-In . SVG Version: 6.00 Build 0)  -->
<svg version="1.1" id="Ebene_1" xmlns="http://www.w3.org/2000/svg" xmlns:xlink="http://www.w3.org/1999/xlink" x="0px" y="0px"
	 viewBox="0 0 60 60" style="enable-background:new 0 0 60 60;" xml:space="preserve">
<style type="text/css">
	.st0{fill:#FFA300;}
	.st1{fill:#FFFFFF;}
</style>
<circle id="Ellipse_28" class="st0" cx="30" cy="30" r="30"/>
<path id="Pfad_920" class="st1" d="M25.5,37l2.8,1.2l-4.1,3.5L25.5,37z M44.6,20.8l-6.1,16.3c-0.3,0.7-0.6,1.3-1,1.9
	c-0.1,0.2-0.3,0.3-0.5,0.3c-0.5,0-1,0-1.5-0.2l-8.9-3.7L44.6,20.8z M41.1,18.5L18.8,32.1l-7.8-3.4c-0.2-0.1-0.4-0.3-0.5-0.4
	c-0.1-0.1-0.1-0.2,0-0.3c0.1-0.3,0.6-0.9,1.9-1.2h0l27.9-8.1L41.1,18.5z M47.6,14.7L47.6,14.7c-0.2,0-0.3,0-0.4,0.1l-7.3,2.1
	l-27.9,8.1l0,0h0c-1.4,0.2-2.6,1.1-3.2,2.4c-0.2,0.6-0.2,1.2,0.1,1.8c0.3,0.6,0.7,1,1.3,1.3c0,0,0.1,0,0.1,0l7.9,3.4l1.8,5.6
	c0.1,0.5,0.7,0.8,1.2,0.7c0.5-0.1,0.8-0.7,0.7-1.2c0,0,0-0.1,0-0.1L20,33.6l23.7-14.5L24.3,34.9l0,0c-0.2,0.2-0.3,0.4-0.4,0.7
	l-2.3,8.5c-0.1,0.5,0.2,1,0.7,1.2c0.3,0.1,0.6,0,0.9-0.2l0,0c0,0,0,0,0,0l7.1-6.1l4.6,1.9c0,0,0.1,0,0.1,0c0.7,0.2,1.5,0.3,2.3,0.2
	c0.6-0.1,1.2-0.4,1.6-0.8c0.6-0.7,1-1.6,1.3-2.4c0,0,0-0.1,0-0.1l8.1-21.7v0c0.2-0.3,0.1-0.7-0.1-1l0,0c0,0,0,0,0,0c0,0,0,0,0,0
	c0,0,0,0,0,0c0,0,0,0,0,0C48,14.8,47.8,14.7,47.6,14.7z"/>
</svg>
