<?xml version="1.0" encoding="utf-8"?>
<!-- Generator: Adobe Illustrator 27.0.1, SVG Export Plug-In . SVG Version: 6.00 Build 0)  -->
<svg version="1.1" id="Ebene_1" xmlns="http://www.w3.org/2000/svg" xmlns:xlink="http://www.w3.org/1999/xlink" x="0px" y="0px"
	 viewBox="0 0 23 23" style="enable-background:new 0 0 23 23;" xml:space="preserve">
<style type="text/css">
	.st0{fill:#FFFFFF;}
</style>
<path id="Pfad_1015" class="st0" d="M23,1.7v19.7c0,0.9-0.7,1.7-1.6,1.7H1.6C0.7,23,0,22.3,0,21.3V1.7C0,0.7,0.7,0,1.6,0h19.7
	C22.3,0,23,0.7,23,1.7 M7.2,5.3c0-1.1-0.9-2-2-2c-1.1,0-2,0.9-2,2c0,1.1,0.9,2,2,2c0,0,0,0,0,0C6.3,7.2,7.2,6.4,7.2,5.3 M7,19.7v-11
	H3.5v11L7,19.7L7,19.7z M19.7,13.7c0-3-0.6-5.2-4.1-5.2c-1.3,0-2.6,0.6-3.2,1.8h0V8.7H9.1v11h3.4v-5.4c0-1.4,0.3-2.8,2-2.8
	c1.7,0,1.8,1.6,1.8,2.9v5.3h3.4V13.7z"/>
</svg>
