<?xml version="1.0" encoding="utf-8"?>
<!-- Generator: Adobe Illustrator 27.0.1, SVG Export Plug-In . SVG Version: 6.00 Build 0)  -->
<svg version="1.1" id="Ebene_1" xmlns="http://www.w3.org/2000/svg" xmlns:xlink="http://www.w3.org/1999/xlink" x="0px" y="0px"
	 viewBox="0 0 30 50" style="enable-background:new 0 0 30 50;" xml:space="preserve">
<style type="text/css">
	.st0{clip-path:url(#SVGID_00000093865529672825042420000001533565242516944512_);}
	.st1{fill:#FFA300;}
</style>
<g id="Gruppe_786" transform="translate(-146 -420)">
	<g id="Gruppe_763" transform="translate(146 420)">
		<g>
			<defs>
				<rect id="SVGID_1_" width="30" height="50"/>
			</defs>
			<clipPath id="SVGID_00000019665766698450090370000004589229351121729725_">
				<use xlink:href="#SVGID_1_"  style="overflow:visible;"/>
			</clipPath>
			<g id="Gruppe_762" style="clip-path:url(#SVGID_00000019665766698450090370000004589229351121729725_);">
				<path id="Pfad_1009" class="st1" d="M5.4,50c-3,0-5.4-2.4-5.4-5.4V5.4C0,2.4,2.4,0,5.4,0h19.2c3,0,5.4,2.4,5.4,5.4v39.2
					c0,3-2.4,5.4-5.4,5.4H5.4z M5.4,2.4c-1.7,0-3,1.4-3,3v39.2c0,1.7,1.4,3,3,3h19.2c1.7,0,3-1.4,3-3V5.4c0-1.7-1.4-3-3-3h-1.7v0.9
					c0,1.7-1.4,3-3,3h-9.7c-1.7,0-3-1.4-3-3V2.4L5.4,2.4z M9.5,3.3C9.5,3.7,9.8,4,10.1,4h9.7c0.4,0,0.6-0.3,0.6-0.6V2.4h-11L9.5,3.3
					z"/>
				<path id="Pfad_1010" class="st1" d="M9.3,45.6c-0.7,0-1.2-0.5-1.2-1.2c0-0.7,0.5-1.2,1.2-1.2h11.3c0.7,0,1.2,0.5,1.2,1.2
					c0,0.7-0.5,1.2-1.2,1.2H9.3z"/>
			</g>
		</g>
	</g>
</g>
</svg>
