<?xml version="1.0" encoding="utf-8"?>
<!-- Generator: Adobe Illustrator 27.0.1, SVG Export Plug-In . SVG Version: 6.00 Build 0)  -->
<svg version="1.1" id="Ebene_1" xmlns="http://www.w3.org/2000/svg" xmlns:xlink="http://www.w3.org/1999/xlink" x="0px" y="0px"
	 viewBox="0 0 26 26" style="enable-background:new 0 0 26 26;" xml:space="preserve">
<style type="text/css">
	.st0{fill:#FFFFFF;}
</style>
<path id="Pfad_1016" class="st0" d="M15,26v-9.1h3l0.6-3.8H15v-2.5c-0.1-1,0.7-2,1.7-2.1c0.1,0,0.3,0,0.4,0h1.6V5.4
	c-1-0.2-1.9-0.2-2.9-0.3c-3,0-4.9,1.8-4.9,5.1v2.9H7.7v3.8H11V26C3.9,24.9-1,18.2,0.2,11S7.9-1,15,0.2S27,8,25.8,15.1
	C25,20.7,20.6,25.1,15,26"/>
</svg>
