<?xml version="1.0" encoding="utf-8"?>
<!-- Generator: Adobe Illustrator 27.0.1, SVG Export Plug-In . SVG Version: 6.00 Build 0)  -->
<svg version="1.1" id="Ebene_1" xmlns="http://www.w3.org/2000/svg" xmlns:xlink="http://www.w3.org/1999/xlink" x="0px" y="0px"
	 viewBox="0 0 50 50" style="enable-background:new 0 0 50 50;" xml:space="preserve">
<style type="text/css">
	.st0{fill:#FFA300;}
	.st1{fill:#FFFFFF;}
</style>
<circle id="Ellipse_28" class="st0" cx="25" cy="25" r="25"/>
<path id="Pfad_920" class="st1" d="M21.3,30.8l2.4,1l-3.4,2.9L21.3,30.8z M37.2,17.3l-5.1,13.5c-0.2,0.6-0.5,1.1-0.8,1.6
	c-0.1,0.1-0.3,0.2-0.4,0.2c-0.4,0-0.8,0-1.2-0.1l-7.4-3.1L37.2,17.3z M34.3,15.4L15.7,26.8l-6.5-2.8c-0.2-0.1-0.3-0.2-0.4-0.4
	c0-0.1,0-0.2,0-0.3c0.1-0.2,0.5-0.7,1.6-1h0l23.2-6.7L34.3,15.4z M39.7,12.2L39.7,12.2c-0.1,0-0.2,0-0.3,0.1l-6.1,1.8L10,20.8l0,0h0
	c-1.2,0.2-2.2,0.9-2.7,2c-0.2,0.5-0.2,1,0,1.5c0.2,0.5,0.6,0.9,1,1.1c0,0,0.1,0,0.1,0l6.6,2.9l1.5,4.6c0.1,0.4,0.5,0.7,1,0.6
	c0.4-0.1,0.7-0.5,0.6-1c0,0,0,0,0-0.1L16.7,28l19.7-12.1L20.2,29.1l0,0c-0.2,0.1-0.3,0.4-0.3,0.6L18,36.8c-0.1,0.4,0.1,0.9,0.6,1
	c0.3,0.1,0.5,0,0.7-0.2l0,0l0,0l5.9-5.1l3.8,1.6c0,0,0.1,0,0.1,0c0.6,0.2,1.3,0.2,1.9,0.2c0.5-0.1,1-0.3,1.3-0.7
	c0.5-0.6,0.8-1.3,1.1-2c0,0,0-0.1,0-0.1l6.8-18.1l0,0c0.1-0.3,0.1-0.6-0.1-0.8l0,0c0,0,0,0,0,0c0,0,0,0,0,0c0,0,0,0,0,0c0,0,0,0,0,0
	C40,12.3,39.8,12.2,39.7,12.2L39.7,12.2z"/>
</svg>
