<?xml version="1.0" encoding="utf-8"?>
<!-- Generator: Adobe Illustrator 27.0.1, SVG Export Plug-In . SVG Version: 6.00 Build 0)  -->
<svg version="1.1" id="Ebene_1" xmlns="http://www.w3.org/2000/svg" xmlns:xlink="http://www.w3.org/1999/xlink" x="0px" y="0px"
	 viewBox="0 0 50 50" style="enable-background:new 0 0 50 50;" xml:space="preserve">
<style type="text/css">
	.st0{fill:#FFA300;}
	.st1{fill:#FFFFFF;}
</style>
<circle id="Ellipse_35" class="st0" cx="25" cy="25" r="25"/>
<path id="Email" class="st1" d="M35.3,13.3H14.7c-2.6,0-4.7,2.1-4.7,4.7v13.1c0,2.6,2.1,4.7,4.7,4.7h20.6c2.6,0,4.7-2.1,4.7-4.7V18
	C40,15.4,37.9,13.3,35.3,13.3z M38.1,31.1c0,1.6-1.3,2.8-2.8,2.8H14.7c-1.6,0-2.8-1.3-2.8-2.8V18c0-1.6,1.3-2.8,2.8-2.8h20.6
	c1.6,0,2.8,1.3,2.8,2.8V31.1z M36,18.7l-5.9,5.9l5.9,5.9c0.4,0.4,0.4,1,0,1.3s-1,0.4-1.3,0l-5.9-5.9L25.7,29c-0.4,0.4-1,0.4-1.3,0
	c0,0,0,0,0,0l-3.1-3.1l-5.9,5.9c-0.4,0.4-1,0.4-1.3,0s-0.4-1,0-1.3l0,0l5.9-5.9L14,18.7c-0.4-0.4-0.4-1,0-1.3c0.4-0.4,0.9-0.4,1.3,0
	L25,27l9.7-9.6c0.4-0.4,1-0.4,1.3,0S36.3,18.3,36,18.7L36,18.7z"/>
</svg>
