<?xml version="1.0" encoding="utf-8"?>
<!-- Generator: Adobe Illustrator 27.0.1, SVG Export Plug-In . SVG Version: 6.00 Build 0)  -->
<svg version="1.1" id="Ebene_1" xmlns="http://www.w3.org/2000/svg" xmlns:xlink="http://www.w3.org/1999/xlink" x="0px" y="0px"
	 viewBox="0 0 283.1 114.2" style="enable-background:new 0 0 283.1 114.2;" xml:space="preserve">
<style type="text/css">
	.st0{fill:#FFFFFF;}
	.st1{fill:#00843D;}
</style>
<g>
	<path class="st0" d="M106,28.2L95.4,0.4h7.4l7.3,20.7l7.5-20.7h7.1l-10.8,27.8H106z"/>
	<path class="st0" d="M127.8,28.2V0.4h21v5.7h-14.2v5.3h10V17h-10v5.5H149v5.7H127.8z"/>
	<path class="st0" d="M154.3,28.2V0.4h6.8v21.9h13.8v5.8H154.3z"/>
	<path class="st0" d="M191.5,28.6c-2,0-3.9-0.4-5.6-1.1c-1.7-0.7-3.3-1.7-4.6-3.1c-1.3-1.3-2.3-2.8-3.1-4.6
		c-0.7-1.7-1.1-3.6-1.1-5.6c0-2,0.4-3.9,1.1-5.6c0.7-1.7,1.7-3.3,3.1-4.6c1.3-1.3,2.8-2.3,4.6-3.1c1.7-0.7,3.6-1.1,5.6-1.1
		c2,0,3.9,0.4,5.6,1.1c1.7,0.7,3.3,1.7,4.6,3.1c1.3,1.3,2.3,2.8,3.1,4.6c0.7,1.7,1.1,3.6,1.1,5.6c0,2-0.4,3.9-1.1,5.6
		c-0.7,1.7-1.7,3.3-3.1,4.6c-1.3,1.3-2.8,2.3-4.6,3.1C195.4,28.3,193.5,28.6,191.5,28.6z M191.5,22.6c1,0,2-0.2,2.9-0.6
		c0.9-0.4,1.7-1,2.3-1.7c0.7-0.8,1.2-1.6,1.5-2.6c0.4-1,0.6-2.1,0.6-3.3s-0.2-2.3-0.6-3.3c-0.4-1-0.9-1.9-1.5-2.6
		c-0.7-0.8-1.4-1.3-2.3-1.7c-0.9-0.4-1.9-0.6-2.9-0.6c-1,0-2,0.2-2.9,0.6c-0.9,0.4-1.7,1-2.3,1.7c-0.7,0.8-1.2,1.6-1.5,2.6
		c-0.4,1-0.6,2.1-0.6,3.3s0.2,2.3,0.6,3.3c0.4,1,0.9,1.9,1.5,2.6c0.7,0.8,1.4,1.3,2.3,1.7C189.5,22.4,190.5,22.6,191.5,22.6z"/>
	<path class="st1" d="M224.6,28.2L213.9,0.4h7.4l7.3,20.7l7.5-20.7h7.1l-10.8,27.8H224.6z"/>
	<path class="st1" d="M246.3,28.2V0.4h21v5.7h-14.2v5.3h10V17h-10v5.5h14.3v5.7H246.3z"/>
	<path class="st1" d="M12,71.4c-2.2,0-4.3-0.4-6.3-1.1c-2-0.7-3.9-1.8-5.8-3.1l3.5-5c1.9,1.3,3.6,2.3,4.9,2.9
		c1.3,0.6,2.7,0.8,4.1,0.8c1,0,1.8-0.1,2.5-0.4c0.7-0.3,1.2-0.6,1.6-1c0.4-0.4,0.6-0.9,0.6-1.5c0-0.8-0.3-1.4-0.8-1.9
		c-0.5-0.4-1.5-0.8-2.8-1l-5.9-1c-2.2-0.4-3.9-1.2-5.1-2.5c-1.2-1.3-1.8-3-1.8-4.9c0-1.8,0.4-3.4,1.3-4.7c0.9-1.3,2.1-2.3,3.8-3
		c1.7-0.7,3.6-1.1,5.9-1.1c2.1,0,4.2,0.3,6.2,1c2,0.6,3.7,1.5,5.2,2.7l-3.5,5c-1.3-1-2.7-1.8-4-2.3c-1.3-0.5-2.8-0.8-4.2-0.8
		c-0.9,0-1.7,0.1-2.3,0.3c-0.6,0.2-1.1,0.5-1.4,0.9C7.4,50,7.3,50.5,7.3,51c0,0.7,0.2,1.3,0.7,1.6c0.5,0.4,1.3,0.7,2.4,0.9l5.6,1
		c2.6,0.4,4.6,1.3,5.9,2.7c1.3,1.3,2,3.1,2,5.2c0,1.8-0.5,3.4-1.4,4.8c-1,1.4-2.3,2.4-4.1,3.2C16.6,71.1,14.5,71.4,12,71.4z"/>
	<path class="st1" d="M40.1,71.4c-2.5,0-4.7-0.5-6.5-1.5c-1.9-1-3.3-2.5-4.3-4.3c-1-1.9-1.5-4.1-1.5-6.6V43.2h6.8v15.7
		c0,1.3,0.2,2.4,0.7,3.3c0.4,1,1.1,1.7,1.9,2.2c0.8,0.5,1.8,0.8,2.9,0.8c1.1,0,2.1-0.3,2.9-0.8c0.8-0.5,1.5-1.3,1.9-2.2
		c0.4-1,0.7-2.1,0.7-3.3V43.2h6.8v15.7c0,2.5-0.5,4.7-1.5,6.6c-1,1.9-2.4,3.3-4.3,4.3C44.8,70.9,42.6,71.4,40.1,71.4z"/>
	<path class="st1" d="M67.7,71.4c-2.2,0-4.3-0.4-6.3-1.1c-2-0.7-3.9-1.8-5.8-3.1l3.5-5c1.9,1.3,3.6,2.3,4.9,2.9
		c1.3,0.6,2.7,0.8,4.1,0.8c1,0,1.8-0.1,2.5-0.4c0.7-0.3,1.2-0.6,1.6-1c0.4-0.4,0.6-0.9,0.6-1.5c0-0.8-0.3-1.4-0.8-1.9
		c-0.5-0.4-1.5-0.8-2.8-1l-5.9-1c-2.2-0.4-3.9-1.2-5.1-2.5c-1.2-1.3-1.8-3-1.8-4.9c0-1.8,0.4-3.4,1.3-4.7c0.9-1.3,2.1-2.3,3.8-3
		c1.7-0.7,3.6-1.1,5.9-1.1c2.1,0,4.2,0.3,6.2,1c2,0.6,3.7,1.5,5.2,2.7l-3.5,5c-1.3-1-2.7-1.8-4-2.3c-1.3-0.5-2.8-0.8-4.2-0.8
		c-0.9,0-1.7,0.1-2.3,0.3c-0.6,0.2-1.1,0.5-1.4,0.9c-0.3,0.4-0.5,0.8-0.5,1.3c0,0.7,0.2,1.3,0.7,1.6c0.5,0.4,1.3,0.7,2.4,0.9l5.6,1
		c2.6,0.4,4.6,1.3,5.9,2.7c1.3,1.3,2,3.1,2,5.2c0,1.8-0.5,3.4-1.4,4.8c-1,1.4-2.3,2.4-4.1,3.2C72.2,71.1,70.1,71.4,67.7,71.4z"/>
	<path class="st1" d="M90.1,71V49.1h-8.9v-5.8h24.7v5.8h-8.9V71H90.1z"/>
	<path class="st1" d="M102,71l10.8-27.8h7.8L131.3,71h-7.4l-2.3-6.6h-10.2l-2.3,6.6H102z M113.3,59.1h6.5l-3.2-9.2L113.3,59.1z"/>
	<path class="st1" d="M134,71V43.2h6.8V71H134z"/>
	<path class="st1" d="M146.7,71V43.2h6.4l12.3,16.8l-0.1-16.8h6.4V71h-6L153,53.6l0.1,17.4H146.7z"/>
	<path class="st1" d="M174.9,71l10.8-27.8h7.8L204.2,71h-7.4l-2.3-6.6h-10.2L182,71H174.9z M186.2,59.1h6.5l-3.2-9.2L186.2,59.1z"/>
	<path class="st1" d="M207.4,71V43.2h13.7c1.8,0,3.4,0.3,4.8,1c1.4,0.6,2.5,1.5,3.3,2.7c0.8,1.1,1.2,2.4,1.2,3.9
		c0,1.3-0.4,2.5-1.1,3.5c-0.7,1-1.7,1.9-2.9,2.5c1.5,0.6,2.6,1.4,3.5,2.6c0.9,1.1,1.3,2.4,1.3,3.8c0,1.5-0.4,2.9-1.2,4
		c-0.8,1.2-1.9,2.1-3.3,2.8c-1.4,0.7-3,1-4.9,1H207.4z M214.2,54.4h6.1c1,0,1.7-0.3,2.3-0.8c0.6-0.5,0.9-1.2,0.9-2.1
		c0-0.9-0.3-1.6-0.9-2.1c-0.6-0.5-1.3-0.8-2.3-0.8h-6.1V54.4z M214.2,65.6h6.7c1,0,1.9-0.3,2.5-0.8c0.6-0.6,0.9-1.3,0.9-2.2
		c0-0.9-0.3-1.7-0.9-2.2c-0.6-0.6-1.4-0.8-2.5-0.8h-6.7V65.6z"/>
	<path class="st1" d="M236.3,71V43.2h6.8v21.9h13.8V71H236.3z"/>
	<path class="st1" d="M262,71V43.2h21V49h-14.2v5.3h10v5.6h-10v5.5h14.3V71H262z"/>
	<path class="st1" d="M2.3,113.8V86h8.6l6.7,13.3L24.3,86h8.6v27.8h-6.4V95l-8.9,16.9l-8.9-17v19H2.3z"/>
	<path class="st1" d="M52.1,114.2c-2,0-3.9-0.4-5.6-1.1s-3.3-1.7-4.6-3.1c-1.3-1.3-2.3-2.8-3.1-4.6c-0.7-1.7-1.1-3.6-1.1-5.6
		c0-2,0.4-3.9,1.1-5.6c0.7-1.7,1.7-3.3,3.1-4.6c1.3-1.3,2.8-2.3,4.6-3.1c1.7-0.7,3.6-1.1,5.6-1.1c2,0,3.9,0.4,5.6,1.1
		c1.7,0.7,3.3,1.7,4.6,3.1c1.3,1.3,2.3,2.8,3.1,4.6c0.7,1.7,1.1,3.6,1.1,5.6c0,2-0.4,3.9-1.1,5.6c-0.7,1.7-1.7,3.3-3.1,4.6
		c-1.3,1.3-2.8,2.3-4.6,3.1S54.1,114.2,52.1,114.2z M52.1,108.2c1,0,2-0.2,2.9-0.6c0.9-0.4,1.7-1,2.3-1.7c0.7-0.8,1.2-1.6,1.5-2.6
		c0.4-1,0.6-2.1,0.6-3.3s-0.2-2.3-0.6-3.3c-0.4-1-0.9-1.9-1.5-2.6c-0.7-0.8-1.4-1.3-2.3-1.7c-0.9-0.4-1.9-0.6-2.9-0.6
		c-1,0-2,0.2-2.9,0.6c-0.9,0.4-1.7,1-2.3,1.7c-0.7,0.8-1.2,1.6-1.5,2.6c-0.4,1-0.6,2.1-0.6,3.3s0.2,2.3,0.6,3.3
		c0.4,1,0.9,1.9,1.5,2.6c0.7,0.8,1.4,1.3,2.3,1.7C50.1,108,51.1,108.2,52.1,108.2z"/>
	<path class="st1" d="M71.3,113.8V86h13.7c1.8,0,3.4,0.3,4.8,1c1.4,0.6,2.5,1.5,3.3,2.7c0.8,1.1,1.2,2.4,1.2,3.9
		c0,1.3-0.4,2.5-1.1,3.5c-0.7,1-1.7,1.9-2.9,2.5c1.5,0.6,2.6,1.4,3.5,2.6c0.9,1.1,1.3,2.4,1.3,3.8c0,1.5-0.4,2.9-1.2,4
		c-0.8,1.2-1.9,2.1-3.3,2.8c-1.4,0.7-3,1-4.9,1H71.3z M78.2,97.2h6.1c1,0,1.7-0.3,2.3-0.8c0.6-0.5,0.9-1.2,0.9-2.1
		c0-0.9-0.3-1.6-0.9-2.1c-0.6-0.5-1.3-0.8-2.3-0.8h-6.1V97.2z M78.2,108.4h6.7c1,0,1.9-0.3,2.5-0.8c0.6-0.6,0.9-1.3,0.9-2.2
		c0-0.9-0.3-1.7-0.9-2.2c-0.6-0.6-1.4-0.8-2.5-0.8h-6.7V108.4z"/>
	<path class="st1" d="M99.9,113.8V86h6.8v27.8H99.9z"/>
	<path class="st1" d="M112.5,113.8V86h6.8V108h13.8v5.8H112.5z"/>
	<path class="st1" d="M137.8,113.8V86h6.8v27.8H137.8z"/>
	<path class="st1" d="M157.1,113.8V91.9h-8.9V86h24.7v5.8h-8.9v21.9H157.1z"/>
	<path class="st1" d="M185.3,113.8v-10.5L174,86h7.9l7,11.4L196,86h7.4l-11.3,17.2v10.6H185.3z"/>
</g>
</svg>
