<?xml version="1.0" encoding="utf-8"?>
<!-- Generator: Adobe Illustrator 27.0.1, SVG Export Plug-In . SVG Version: 6.00 Build 0)  -->
<svg version="1.1" id="Ebene_1" xmlns="http://www.w3.org/2000/svg" xmlns:xlink="http://www.w3.org/1999/xlink" x="0px" y="0px"
	 viewBox="0 0 15 21" style="enable-background:new 0 0 15 21;" xml:space="preserve">
<style type="text/css">
	.st0{fill:#FFA300;}
</style>
<g id="karten-und-flaggen" transform="translate(-70.573)">
	<g id="Gruppe_648" transform="translate(70.573)">
		<path id="Pfad_914" class="st0" d="M7.5,0C3.4,0,0,3.4,0,7.6c0,5.2,6.7,12.8,7,13.2c0.2,0.3,0.7,0.3,1,0.1c0,0,0,0,0.1-0.1
			c0.3-0.3,7-8,7-13.2C15,3.4,11.6,0,7.5,0z M7.5,11.4c-2.1,0-3.8-1.7-3.8-3.8c0-2.1,1.7-3.8,3.8-3.8c2.1,0,3.8,1.7,3.8,3.8
			c0,0,0,0,0,0C11.3,9.7,9.6,11.4,7.5,11.4z"/>
	</g>
</g>
</svg>
