<?xml version="1.0" encoding="utf-8"?>
<!-- Generator: Adobe Illustrator 27.0.1, SVG Export Plug-In . SVG Version: 6.00 Build 0)  -->
<svg version="1.1" id="Ebene_1" xmlns="http://www.w3.org/2000/svg" xmlns:xlink="http://www.w3.org/1999/xlink" x="0px" y="0px"
	 viewBox="0 0 23 23" style="enable-background:new 0 0 23 23;" xml:space="preserve">
<style type="text/css">
	.st0{fill:#FFFFFF;}
</style>
<path id="Pfad_1017" class="st0" d="M22.9,16.2c0,1.8-0.6,3.5-1.9,4.8c-1.3,1.2-3,1.9-4.8,1.9c-1.9,0.1-7.6,0.1-9.5,0
	c-1.8,0-3.5-0.6-4.8-1.9c-1.2-1.3-1.9-3-1.9-4.8C0,14.3,0,8.7,0.1,6.8C0,5,0.7,3.2,1.9,1.9C3.2,0.7,5,0,6.8,0.1
	c1.9-0.1,7.6-0.1,9.5,0c1.8,0,3.5,0.6,4.8,1.9c1.2,1.3,1.9,3,1.9,4.8C23,8.7,23,14.3,22.9,16.2 M20.9,11.5c0-1.7,0.1-5.3-0.5-6.8
	c-0.4-1-1.2-1.8-2.2-2.2c-1.5-0.6-5.1-0.5-6.8-0.5S6.2,1.9,4.7,2.5c-1,0.4-1.8,1.2-2.2,2.2c-0.6,1.5-0.5,5.1-0.5,6.8
	s-0.1,5.3,0.5,6.8c0.4,1,1.2,1.8,2.2,2.2c1.5,0.6,5.1,0.5,6.8,0.5s5.3,0.1,6.8-0.5c1-0.4,1.8-1.2,2.2-2.2
	C21.1,16.8,20.9,13.2,20.9,11.5 M17.4,11.5c0,3.3-2.6,5.9-5.9,5.9c-3.3,0-5.9-2.6-5.9-5.9c0-3.3,2.6-5.9,5.9-5.9h0
	C14.8,5.6,17.4,8.2,17.4,11.5C17.4,11.5,17.4,11.5,17.4,11.5 M15.3,11.5c0-2.1-1.7-3.8-3.8-3.8c-2.1,0-3.8,1.7-3.8,3.8
	c0,2.1,1.7,3.8,3.8,3.8C13.6,15.3,15.3,13.6,15.3,11.5 M17.6,6.7c-0.8,0-1.4-0.6-1.4-1.4S16.9,4,17.6,4C18.4,4,19,4.6,19,5.4
	C19,6.1,18.4,6.7,17.6,6.7C17.6,6.7,17.6,6.7,17.6,6.7"/>
</svg>
