<?xml version="1.0" encoding="utf-8"?>
<!-- Generator: Adobe Illustrator 27.0.1, SVG Export Plug-In . SVG Version: 6.00 Build 0)  -->
<svg version="1.1" id="Ebene_1" xmlns="http://www.w3.org/2000/svg" xmlns:xlink="http://www.w3.org/1999/xlink" x="0px" y="0px"
	 viewBox="0 0 32 50" style="enable-background:new 0 0 32 50;" xml:space="preserve">
<style type="text/css">
	.st0{clip-path:url(#SVGID_00000088109948033427870890000000252431241648315534_);}
	.st1{fill:#FFA300;}
</style>
<g>
	<defs>
		<rect id="SVGID_1_" width="32" height="50"/>
	</defs>
	<clipPath id="SVGID_00000150102327131703855880000009480923455645737380_">
		<use xlink:href="#SVGID_1_"  style="overflow:visible;"/>
	</clipPath>
	<g id="Gruppe_649" style="clip-path:url(#SVGID_00000150102327131703855880000009480923455645737380_);">
		<path id="Pfad_915" class="st1" d="M16,50C7.2,50,0,42.8,0,34V16C0,7.2,7.2,0,16,0c4.2,0,8.3,1.7,11.3,4.7c3,3,4.7,7.1,4.7,11.3
			v18C32,42.8,24.8,50,16,50 M2.5,34c0,7.4,6,13.5,13.5,13.5c7.5,0,13.5-6,13.5-13.5c0,0,0,0,0,0V22.2h-27V34z M29.5,19.7V16
			c0-7-5.3-12.8-12.2-13.4v2.6c1.5,0.5,2.4,1.9,2.5,3.5v4.9c0,1.6-1,3-2.5,3.5v2.6H29.5z M14.7,19.7V17c-1.5-0.5-2.5-1.9-2.5-3.5
			V8.6c0-1.6,1-3,2.5-3.5V2.6C7.8,3.2,2.5,9,2.5,16v3.7H14.7z M16,7.4c-0.7,0-1.2,0.5-1.2,1.2l0,0v4.9c0,0.7,0.5,1.2,1.2,1.2
			c0.7,0,1.2-0.5,1.2-1.2V8.6C17.2,8,16.7,7.4,16,7.4"/>
	</g>
</g>
</svg>
