<?xml version="1.0" encoding="utf-8"?>
<!-- Generator: Adobe Illustrator 27.0.1, SVG Export Plug-In . SVG Version: 6.00 Build 0)  -->
<svg version="1.1" id="Ebene_1" xmlns="http://www.w3.org/2000/svg" xmlns:xlink="http://www.w3.org/1999/xlink" x="0px" y="0px"
	 viewBox="0 0 60 60" style="enable-background:new 0 0 60 60;" xml:space="preserve">
<style type="text/css">
	.st0{fill:#FFA300;}
	.st1{fill:#FFFFFF;}
</style>
<circle id="Ellipse_35" class="st0" cx="30" cy="30" r="30"/>
<path class="st1" d="M42.4,16H17.6c-3.1,0-5.6,2.5-5.6,5.6v15.8c0,3.1,2.5,5.6,5.6,5.6h24.8c3.1,0,5.6-2.5,5.6-5.6V21.6
	C48,18.5,45.5,16,42.4,16z M45.8,37.4c0,1.9-1.5,3.4-3.4,3.4H17.6c-1.9,0-3.4-1.5-3.4-3.4V21.6c0-1.9,1.5-3.4,3.4-3.4h24.8
	c1.9,0,3.4,1.5,3.4,3.4V37.4z"/>
<path class="st1" d="M43.2,22.4l-7.1,7.1l7.1,7.1c0.5,0.4,0.5,1.1,0.1,1.6c-0.4,0.5-1.1,0.5-1.6,0.1c0,0,0,0-0.1-0.1l-7.1-7.1
	l-3.7,3.7c-0.4,0.4-1.2,0.4-1.6,0c0,0,0,0,0,0l-3.7-3.7l-7.1,7.1c-0.5,0.4-1.2,0.4-1.6-0.1c-0.4-0.4-0.4-1.1,0-1.5l7.1-7.1l-7.1-7.1
	c-0.5-0.4-0.5-1.1-0.1-1.6s1.1-0.5,1.6-0.1c0,0,0,0,0.1,0.1L30,32.4l11.6-11.6c0.5-0.4,1.2-0.4,1.6,0.1C43.6,21.3,43.6,22,43.2,22.4
	z"/>
</svg>
