<?xml version="1.0" encoding="utf-8"?>
<!-- Generator: Adobe Illustrator 27.0.1, SVG Export Plug-In . SVG Version: 6.00 Build 0)  -->
<svg version="1.1" id="Ebene_1" xmlns="http://www.w3.org/2000/svg" xmlns:xlink="http://www.w3.org/1999/xlink" x="0px" y="0px"
	 viewBox="0 0 21 29" style="enable-background:new 0 0 21 29;" xml:space="preserve">
<style type="text/css">
	.st0{fill:#FFA300;}
</style>
<path id="Pfad_914" class="st0" d="M10.5,0C4.7,0,0,4.7,0,10.5c0,7.2,9.4,17.7,9.8,18.2c0.3,0.4,0.9,0.4,1.3,0.1c0,0,0,0,0.1-0.1
	c0.4-0.4,9.8-11,9.8-18.2C21,4.7,16.3,0,10.5,0z M10.5,15.8c-2.9,0-5.3-2.4-5.3-5.3c0-2.9,2.4-5.3,5.3-5.3c2.9,0,5.3,2.4,5.3,5.3
	C15.8,13.4,13.4,15.8,10.5,15.8z"/>
</svg>
