<?xml version="1.0" encoding="utf-8"?>
<!-- Generator: Adobe Illustrator 27.0.1, SVG Export Plug-In . SVG Version: 6.00 Build 0)  -->
<svg version="1.1" id="Ebene_1" xmlns="http://www.w3.org/2000/svg" xmlns:xlink="http://www.w3.org/1999/xlink" x="0px" y="0px"
	 viewBox="0 0 5000 359" style="enable-background:new 0 0 5000 359;" xml:space="preserve">
<style type="text/css">
	.st0{fill:#00843D;}
	.st1{fill:#FFFFFF;}
</style>
<g>
	<g id="Gruppe_764">
		<path class="st0" d="M2397.3,359H0v-54h2397.3c27.1,0,49.2-22.1,49.2-49.2c0-27.2-22.1-49.2-49.2-49.2h-81.8
			c-57-0.2-103.2-46.7-103-103.6c0.1-27.4,10.8-53.2,30.2-72.6c19.4-19.4,45.2-30.1,72.6-30.2L5000,0v54H2315.5
			c-26.9,0.1-48.9,22.1-49,49.1c0,13.2,5,25.5,14.3,34.9s21.6,14.5,34.8,14.5h81.7c56.9,0,103.2,46.3,103.2,103.3
			C2500.5,312.7,2454.2,359,2397.3,359z"/>
		<path class="st1" d="M2397.3,357H0v-50h2397.3c28.2,0,51.2-23,51.2-51.2s-23-51.2-51.2-51.2h-81.8c-55.9-0.2-101.2-45.8-101-101.6
			c0.1-26.9,10.6-52.2,29.6-71.2s44.3-29.6,71.2-29.7H5000v50H2315.5c-28,0.1-50.9,23-51,51.1c0,13.7,5.2,26.6,14.9,36.3
			s22.5,15.1,36.2,15.1h81.7c55.8,0,101.2,45.4,101.2,101.3C2498.5,311.6,2453.1,357,2397.3,357z"/>
		<path class="st0" d="M2360,333h-20v-2h20V333z M2300,333h-20v-2h20V333z M2240,333h-20v-2h20V333z M2180,333h-20v-2h20V333z
			 M2120,333h-20v-2h20V333z M2060,333h-20v-2h20V333z M2000,333h-20v-2h20V333z M1940,333h-20v-2h20V333z M1880,333h-20v-2h20V333z
			 M1820,333h-20v-2h20V333z M1760,333h-20v-2h20V333z M1700,333h-20v-2h20V333z M1640,333h-20v-2h20V333z M1580,333h-20v-2h20V333z
			 M1520,333h-20v-2h20V333z M1460,333h-20v-2h20V333z M1400,333h-20v-2h20V333z M1340,333h-20v-2h20V333z M1280,333h-20v-2h20V333z
			 M1220,333h-20v-2h20V333z M1160,333h-20v-2h20V333z M1100,333h-20v-2h20V333z M1040,333h-20v-2h20V333z M980,333h-20v-2h20V333z
			 M920,333h-20v-2h20V333z M860,333h-20v-2h20V333z M800,333h-20v-2h20V333z M740,333h-20v-2h20V333z M680,333h-20v-2h20V333z
			 M620,333h-20v-2h20V333z M560,333h-20v-2h20V333z M500,333h-20v-2h20V333z M440,333h-20v-2h20V333z M380,333h-20v-2h20V333z
			 M320,333h-20v-2h20V333z M260,333h-20v-2h20V333z M200,333h-20v-2h20V333z M140,333h-20v-2h20V333z M80,333H60v-2h20V333z
			 M20,333H0v-2h20V333z M2400,332.9l-0.1-2c6.6-0.2,13.1-1.3,19.4-3.2l0.6,1.9C2413.5,331.6,2406.8,332.7,2400,332.9z
			 M2453.9,308.3l-1.5-1.4c4.5-4.8,8.3-10.2,11.4-16l1.8,0.9C2462.4,297.8,2458.5,303.4,2453.9,308.3z M2472.5,252.9
			c-0.2-6.6-1.4-13.1-3.3-19.4l1.9-0.6c2,6.4,3.1,13.1,3.4,19.9L2472.5,252.9z M2448.3,200.5c-4.8-4.5-10.2-8.3-16.1-11.4l0.9-1.8
			c6,3.1,11.5,7.1,16.5,11.7L2448.3,200.5z M2394.2,180.5h-20v-2h20V180.5z M2334.2,180.5h-18.7c-0.4,0-0.9,0-1.3,0l0-2
			c0.4,0,0.8,0,1.3,0h18.7V180.5z M2275.7,169.3c-5.8-3.5-11.1-7.8-15.8-12.7l1.4-1.4c4.6,4.8,9.7,8.9,15.3,12.3L2275.7,169.3z
			 M2240.7,121.5c-1.4-6-2.2-12.1-2.2-18.3l0-0.3c0-0.5,0-1,0-1.5l2,0c0,0.5,0,1,0,1.5l0,0.3c0,6,0.7,12,2.1,17.8L2240.7,121.5z
			 M2251.5,64.1l-1.7-1c3.5-5.8,7.8-11.1,12.7-15.7l1.4,1.4C2259.1,53.3,2254.9,58.4,2251.5,64.1z M2298.1,30.1l-0.5-1.9
			c5.8-1.4,11.8-2.1,17.8-2.1h2.3v2h-2.3C2309.6,28,2303.8,28.7,2298.1,30.1z M5000,28h-2.3v-2h2.3V28z M4957.7,28h-20v-2h20V28z
			 M4897.7,28h-20v-2h20V28z M4837.7,28h-20v-2h20V28z M4777.7,28h-20v-2h20V28z M4717.7,28h-20v-2h20V28z M4657.7,28h-20v-2h20V28z
			 M4597.7,28h-20v-2h20V28z M4537.7,28h-20v-2h20V28z M4477.7,28h-20v-2h20V28z M4417.7,28h-20v-2h20V28z M4357.7,28h-20v-2h20V28z
			 M4297.7,28h-20v-2h20V28z M4237.7,28h-20v-2h20V28z M4177.7,28h-20v-2h20V28z M4117.7,28h-20v-2h20V28z M4057.7,28h-20v-2h20V28z
			 M3997.7,28h-20v-2h20V28z M3937.7,28h-20v-2h20V28z M3877.7,28h-20v-2h20V28z M3817.7,28h-20v-2h20V28z M3757.7,28h-20v-2h20V28z
			 M3697.7,28h-20v-2h20V28z M3637.7,28h-20v-2h20V28z M3577.7,28h-20v-2h20V28z M3517.7,28h-20v-2h20V28z M3457.7,28h-20v-2h20V28z
			 M3397.7,28h-20v-2h20V28z M3337.7,28h-20v-2h20V28z M3277.7,28h-20v-2h20V28z M3217.7,28h-20v-2h20V28z M3157.7,28h-20v-2h20V28z
			 M3097.7,28h-20v-2h20V28z M3037.7,28h-20v-2h20V28z M2977.7,28h-20v-2h20V28z M2917.7,28h-20v-2h20V28z M2857.7,28h-20v-2h20V28z
			 M2797.7,28h-20v-2h20V28z M2737.7,28h-20v-2h20V28z M2677.7,28h-20v-2h20V28z M2617.7,28h-20v-2h20V28z M2557.7,28h-20v-2h20V28z
			 M2497.7,28h-20v-2h20V28z M2437.7,28h-20v-2h20V28z M2377.7,28h-20v-2h20V28z"/>
	</g>
</g>
</svg>
