<?xml version="1.0" encoding="utf-8"?>
<!-- Generator: Adobe Illustrator 27.0.1, SVG Export Plug-In . SVG Version: 6.00 Build 0)  -->
<svg version="1.1" id="Ebene_1" xmlns="http://www.w3.org/2000/svg" xmlns:xlink="http://www.w3.org/1999/xlink" x="0px" y="0px"
	 viewBox="0 0 31 31" style="enable-background:new 0 0 31 31;" xml:space="preserve">
<style type="text/css">
	.st0{fill:#FFFFFF;}
</style>
<path id="Pfad_1015" class="st0" d="M31,2.2v26.5c0,1.2-1,2.2-2.2,2.2H2.2C1,31,0,30,0,28.8V2.2C0,1,1,0,2.2,0h26.6
	C30,0,31,1,31,2.2 M9.7,7.1c0-1.5-1.2-2.7-2.7-2.7c-1.5,0-2.7,1.2-2.7,2.7c0,1.5,1.2,2.7,2.7,2.7c0,0,0,0,0,0
	C8.5,9.8,9.7,8.6,9.7,7.1 M9.4,26.6V11.8H4.8v14.8L9.4,26.6L9.4,26.6z M26.6,18.5c0-4-0.9-7.1-5.5-7.1c-1.8-0.1-3.5,0.9-4.4,2.4
	h-0.1v-2h-4.4v14.8h4.6v-7.3c0-1.9,0.4-3.8,2.8-3.8c2.4,0,2.4,2.2,2.4,3.9v7.2h4.6V18.5z"/>
</svg>
