<?xml version="1.0" encoding="utf-8"?>
<!-- Generator: Adobe Illustrator 27.0.1, SVG Export Plug-In . SVG Version: 6.00 Build 0)  -->
<svg version="1.1" id="Ebene_1" xmlns="http://www.w3.org/2000/svg" xmlns:xlink="http://www.w3.org/1999/xlink" x="0px" y="0px"
	 viewBox="0 0 31 31" style="enable-background:new 0 0 31 31;" xml:space="preserve">
<style type="text/css">
	.st0{fill:#FFFFFF;}
</style>
<path id="Pfad_1017" class="st0" d="M30.9,21.9c0,2.4-0.9,4.7-2.5,6.5c-1.8,1.7-4.1,2.6-6.5,2.5c-2.6,0.1-10.2,0.1-12.8,0
	c-2.4,0-4.7-0.9-6.5-2.5c-1.7-1.8-2.6-4.1-2.5-6.5C0,19.3,0,11.7,0.1,9.1c0-2.4,0.8-4.7,2.5-6.5C4.4,1,6.7,0.1,9.1,0.1
	C11.7,0,19.3,0,21.9,0.1c2.4,0,4.7,0.9,6.5,2.5c1.7,1.8,2.6,4.1,2.5,6.5C31,11.7,31,19.3,30.9,21.9 M28.2,15.5
	c0-2.3,0.2-7.1-0.6-9.1c-0.5-1.3-1.6-2.4-2.9-3c-2-0.8-6.9-0.6-9.1-0.6S8.4,2.6,6.4,3.4C5,3.9,4,5,3.4,6.4c-0.8,2-0.6,6.9-0.6,9.1
	s-0.2,7.1,0.6,9.1C4,26,5,27.1,6.4,27.6c2,0.8,6.9,0.6,9.1,0.6s7.1,0.2,9.1-0.6c1.3-0.5,2.4-1.6,2.9-2.9
	C28.4,22.6,28.2,17.8,28.2,15.5 M23.5,15.5c0,4.4-3.6,7.9-7.9,7.9c-4.4,0-7.9-3.6-7.9-7.9c0-4.4,3.6-7.9,7.9-7.9h0
	C19.9,7.5,23.4,11.1,23.5,15.5C23.5,15.5,23.5,15.5,23.5,15.5 M20.7,15.5c0-2.9-2.3-5.2-5.2-5.2c-2.9,0-5.2,2.3-5.2,5.2
	c0,2.9,2.3,5.2,5.2,5.2C18.4,20.7,20.7,18.4,20.7,15.5 M23.8,9.1c-1,0-1.9-0.8-1.9-1.9s0.8-1.9,1.9-1.9c1,0,1.9,0.8,1.9,1.9
	C25.6,8.2,24.8,9.1,23.8,9.1C23.8,9.1,23.8,9.1,23.8,9.1"/>
</svg>
