<?xml version="1.0" encoding="utf-8"?>
<!-- Generator: Adobe Illustrator 27.0.1, SVG Export Plug-In . SVG Version: 6.00 Build 0)  -->
<svg version="1.1" id="Ebene_1" xmlns="http://www.w3.org/2000/svg" xmlns:xlink="http://www.w3.org/1999/xlink" x="0px" y="0px"
	 viewBox="0 0 34 34" style="enable-background:new 0 0 34 34;" xml:space="preserve">
<style type="text/css">
	.st0{fill:#FFFFFF;}
</style>
<path id="Pfad_1016" class="st0" d="M19.7,34V22h4l0.8-4.9h-4.7v-3.2c-0.1-1.4,0.9-2.6,2.2-2.7c0.2,0,0.4,0,0.5,0h2.1V7
	c-1.3-0.2-2.5-0.3-3.8-0.3c-3.9,0-6.4,2.4-6.4,6.7v3.8H10v4.9h4.3V34C5.1,32.5-1.3,23.8,0.2,14.4S10.4-1.3,19.7,0.2
	s15.6,10.2,14.1,19.6C32.6,27.1,26.9,32.8,19.7,34"/>
</svg>
