<?xml version="1.0" encoding="utf-8"?>
<!-- Generator: Adobe Illustrator 27.0.1, SVG Export Plug-In . SVG Version: 6.00 Build 0)  -->
<svg version="1.1" id="Ebene_1" xmlns="http://www.w3.org/2000/svg" xmlns:xlink="http://www.w3.org/1999/xlink" x="0px" y="0px"
	 viewBox="0 0 921 257" style="enable-background:new 0 0 921 257;" xml:space="preserve">
<style type="text/css">
	.st0{fill:#FFFFFF;}
	.st1{fill:#00843D;}
</style>
<g>
	<path class="st0" d="M24.1,63.7L0.1,1.4h16.6l16.5,46.4L49.9,1.4h15.9L41.5,63.7H24.1z"/>
	<path class="st0" d="M72.9,63.7V1.4H120v12.8H88.2V26h22.4v12.5H88.2v12.4h32.1v12.8H72.9z"/>
	<path class="st0" d="M132.4,63.7V1.4h15.3v49.2h30.9v13.1H132.4z"/>
	<path class="st0" d="M215.8,64.6c-4.5,0-8.7-0.8-12.6-2.4s-7.3-3.9-10.3-6.9c-2.9-2.9-5.2-6.3-6.9-10.2c-1.6-3.9-2.4-8.1-2.4-12.6
		c0-4.5,0.8-8.7,2.4-12.6c1.6-3.9,3.9-7.3,6.9-10.2c2.9-2.9,6.4-5.2,10.3-6.9c3.9-1.6,8.1-2.4,12.6-2.4c4.5,0,8.7,0.8,12.6,2.4
		c3.9,1.6,7.3,3.9,10.3,6.9c2.9,2.9,5.2,6.3,6.9,10.2c1.6,3.9,2.4,8.1,2.4,12.6c0,4.5-0.8,8.7-2.4,12.6c-1.6,3.9-3.9,7.3-6.9,10.2
		c-2.9,2.9-6.4,5.2-10.3,6.9S220.3,64.6,215.8,64.6z M215.8,51c2.3,0,4.5-0.5,6.5-1.4c2-0.9,3.8-2.2,5.3-3.9
		c1.5-1.7,2.6-3.6,3.5-5.9c0.8-2.2,1.2-4.7,1.2-7.3s-0.4-5.1-1.2-7.3c-0.8-2.2-2-4.2-3.5-5.9c-1.5-1.7-3.2-3-5.3-3.9
		c-2-0.9-4.2-1.4-6.5-1.4c-2.3,0-4.5,0.5-6.5,1.4c-2,0.9-3.8,2.2-5.3,3.9c-1.5,1.7-2.6,3.6-3.5,5.9c-0.8,2.2-1.2,4.7-1.2,7.3
		s0.4,5.1,1.2,7.3c0.8,2.2,2,4.2,3.5,5.9c1.5,1.7,3.2,3,5.3,3.9C211.3,50.6,213.5,51,215.8,51z"/>
	<path class="st1" d="M289.9,63.7L266,1.4h16.6L299,47.7l16.7-46.4h15.9l-24.3,62.3H289.9z"/>
	<path class="st1" d="M338.8,63.7V1.4h47.1v12.8h-31.8V26h22.4v12.5h-22.4v12.4h32.1v12.8H338.8z"/>
	<path class="st1" d="M312.7,160.6c-4.9,0-9.6-0.8-14.1-2.4c-4.5-1.6-8.8-3.9-12.9-7l7.8-11.3c4.3,3,8,5.2,11,6.4
		c3,1.2,6.1,1.9,9.2,1.9c2.2,0,4.1-0.3,5.7-0.8c1.6-0.6,2.8-1.3,3.6-2.3c0.9-1,1.3-2.1,1.3-3.4c0-1.8-0.6-3.2-1.8-4.2
		c-1.2-1-3.3-1.7-6.4-2.3l-13.3-2.3c-4.9-0.8-8.7-2.7-11.3-5.7c-2.6-3-4-6.6-4-11c0-4,1-7.5,2.9-10.5c2-2.9,4.8-5.2,8.5-6.8
		c3.7-1.6,8.1-2.4,13.3-2.4c4.8,0,9.5,0.7,14,2.2c4.5,1.5,8.4,3.5,11.6,6l-7.7,11.1c-3-2.3-6.1-4-9.1-5.2c-3-1.1-6.2-1.7-9.5-1.7
		c-2,0-3.7,0.3-5.2,0.8c-1.4,0.5-2.5,1.2-3.2,2.1c-0.7,0.9-1.1,1.9-1.1,3c0,1.6,0.5,2.8,1.6,3.7c1.1,0.9,2.9,1.5,5.4,2l12.5,2.1
		c5.8,1,10.2,2.9,13.3,6c3,3,4.5,6.9,4.5,11.7c0,4-1.1,7.6-3.2,10.7c-2.2,3.1-5.2,5.5-9.2,7.2C322.9,159.8,318.2,160.6,312.7,160.6z
		"/>
	<path class="st1" d="M375.7,160.5c-5.6,0-10.4-1.1-14.6-3.4c-4.2-2.3-7.4-5.5-9.6-9.7c-2.3-4.2-3.4-9.1-3.4-14.8V97.4h15.3v35.2
		c0,2.8,0.5,5.3,1.5,7.5c1,2.1,2.4,3.8,4.3,5c1.8,1.2,4,1.8,6.5,1.8c2.5,0,4.7-0.6,6.5-1.8c1.8-1.2,3.3-2.8,4.3-5
		c1-2.1,1.5-4.6,1.5-7.5V97.4h15.3v35.2c0,5.7-1.1,10.6-3.4,14.8c-2.3,4.2-5.4,7.4-9.6,9.7C386.2,159.4,381.3,160.5,375.7,160.5z"/>
	<path class="st1" d="M437.6,160.6c-4.9,0-9.6-0.8-14.1-2.4c-4.5-1.6-8.8-3.9-12.9-7l7.8-11.3c4.3,3,8,5.2,11,6.4
		c3,1.2,6.1,1.9,9.2,1.9c2.2,0,4.1-0.3,5.7-0.8c1.6-0.6,2.8-1.3,3.6-2.3c0.9-1,1.3-2.1,1.3-3.4c0-1.8-0.6-3.2-1.8-4.2
		c-1.2-1-3.3-1.7-6.4-2.3l-13.3-2.3c-4.9-0.8-8.7-2.7-11.3-5.7c-2.6-3-4-6.6-4-11c0-4,1-7.5,2.9-10.5c2-2.9,4.8-5.2,8.5-6.8
		c3.7-1.6,8.1-2.4,13.3-2.4c4.8,0,9.5,0.7,14,2.2c4.5,1.5,8.4,3.5,11.6,6l-7.7,11.1c-3-2.3-6.1-4-9.1-5.2c-3-1.1-6.2-1.7-9.5-1.7
		c-2,0-3.7,0.3-5.2,0.8c-1.4,0.5-2.5,1.2-3.2,2.1c-0.7,0.9-1.1,1.9-1.1,3c0,1.6,0.5,2.8,1.6,3.7c1.1,0.9,2.9,1.5,5.4,2l12.5,2.1
		c5.8,1,10.2,2.9,13.3,6c3,3,4.5,6.9,4.5,11.7c0,4-1.1,7.6-3.2,10.7c-2.2,3.1-5.2,5.5-9.2,7.2C447.8,159.8,443.1,160.6,437.6,160.6z
		"/>
	<path class="st1" d="M487.8,159.7v-49.2h-20V97.4h55.4v13.1h-20v49.2H487.8z"/>
	<path class="st1" d="M514.5,159.7l24.3-62.3h17.4l23.9,62.3h-16.6l-5.2-14.9h-22.8l-5.3,14.9H514.5z M539.9,133h14.5l-7.2-20.6
		L539.9,133z"/>
	<path class="st1" d="M586.4,159.7V97.4h15.3v62.3H586.4z"/>
	<path class="st1" d="M614.7,159.7V97.4h14.4l27.7,37.7l-0.3-37.7H671v62.3h-13.5l-28.6-39l0.3,39H614.7z"/>
	<path class="st1" d="M678.1,159.7l24.3-62.3h17.4l23.9,62.3h-16.6l-5.2-14.9h-22.8l-5.3,14.9H678.1z M703.4,133h14.5l-7.2-20.6
		L703.4,133z"/>
	<path class="st1" d="M750.9,159.7V97.4h30.8c4,0,7.6,0.7,10.7,2.2c3.1,1.5,5.6,3.5,7.3,6c1.8,2.6,2.7,5.5,2.7,8.8
		c0,2.9-0.8,5.5-2.5,7.9c-1.7,2.3-3.9,4.2-6.6,5.7c3.3,1.3,5.9,3.2,7.9,5.7c2,2.5,3,5.4,3,8.6c0,3.4-0.9,6.4-2.7,9
		c-1.8,2.6-4.3,4.7-7.4,6.2c-3.1,1.5-6.8,2.2-10.9,2.2H750.9z M766.2,122.4h13.7c2.1,0,3.9-0.6,5.2-1.8c1.3-1.2,2-2.7,2-4.6
		c0-2-0.6-3.5-1.9-4.7c-1.3-1.2-3-1.7-5.2-1.7h-13.7V122.4z M766.2,147.5h15c2.3,0,4.2-0.6,5.5-1.9c1.4-1.2,2-2.9,2-5
		c0-2.1-0.7-3.7-2-5c-1.4-1.2-3.2-1.9-5.5-1.9h-15V147.5z"/>
	<path class="st1" d="M815.8,159.7V97.4h15.3v49.2h30.9v13.1H815.8z"/>
	<path class="st1" d="M873.4,159.7V97.4h47.1v12.8h-31.8V122h22.4v12.5h-22.4v12.4h32.1v12.8H873.4z"/>
	<path class="st1" d="M291,255.7v-62.3h19.2l15,29.9l15-29.9h19.2v62.3H345v-42.3l-19.9,37.8l-20-38.2v42.6H291z"/>
	<path class="st1" d="M402.6,256.6c-4.5,0-8.7-0.8-12.6-2.4s-7.3-3.9-10.3-6.9c-2.9-2.9-5.2-6.3-6.9-10.2c-1.6-3.9-2.4-8.1-2.4-12.6
		c0-4.5,0.8-8.7,2.4-12.6c1.6-3.9,3.9-7.3,6.9-10.2c2.9-2.9,6.4-5.2,10.3-6.9c3.9-1.6,8.1-2.4,12.6-2.4c4.5,0,8.7,0.8,12.6,2.4
		c3.9,1.6,7.3,3.9,10.3,6.9c2.9,2.9,5.2,6.3,6.9,10.2c1.6,3.9,2.4,8.1,2.4,12.6c0,4.5-0.8,8.7-2.4,12.6c-1.6,3.9-3.9,7.3-6.9,10.2
		c-2.9,2.9-6.4,5.2-10.3,6.9S407.1,256.6,402.6,256.6z M402.6,243c2.3,0,4.5-0.5,6.5-1.4c2-0.9,3.8-2.2,5.3-3.9
		c1.5-1.7,2.6-3.6,3.5-5.9c0.8-2.2,1.2-4.7,1.2-7.3s-0.4-5.1-1.2-7.3c-0.8-2.2-2-4.2-3.5-5.9c-1.5-1.7-3.2-3-5.3-3.9
		c-2-0.9-4.2-1.4-6.5-1.4c-2.3,0-4.5,0.5-6.5,1.4c-2,0.9-3.8,2.2-5.3,3.9c-1.5,1.7-2.6,3.6-3.5,5.9c-0.8,2.2-1.2,4.7-1.2,7.3
		s0.4,5.1,1.2,7.3c0.8,2.2,2,4.2,3.5,5.9c1.5,1.7,3.2,3,5.3,3.9C398.1,242.6,400.3,243,402.6,243z"/>
	<path class="st1" d="M445.8,255.7v-62.3h30.8c4,0,7.6,0.7,10.7,2.2c3.1,1.5,5.6,3.5,7.3,6c1.8,2.6,2.7,5.5,2.7,8.8
		c0,2.9-0.8,5.5-2.5,7.9c-1.7,2.3-3.9,4.2-6.6,5.7c3.3,1.3,5.9,3.2,7.9,5.7c2,2.5,3,5.4,3,8.6c0,3.4-0.9,6.4-2.7,9
		c-1.8,2.6-4.3,4.7-7.4,6.2c-3.1,1.5-6.8,2.2-10.9,2.2H445.8z M461.1,218.4h13.7c2.1,0,3.9-0.6,5.2-1.8c1.3-1.2,2-2.7,2-4.6
		c0-2-0.6-3.5-1.9-4.7c-1.3-1.2-3-1.7-5.2-1.7h-13.7V218.4z M461.1,243.5h15c2.3,0,4.2-0.6,5.5-1.9c1.4-1.2,2-2.9,2-5
		c0-2.1-0.7-3.7-2-5c-1.4-1.2-3.2-1.9-5.5-1.9h-15V243.5z"/>
	<path class="st1" d="M509.8,255.7v-62.3h15.3v62.3H509.8z"/>
	<path class="st1" d="M538.1,255.7v-62.3h15.3v49.2h30.9v13.1H538.1z"/>
	<path class="st1" d="M594.9,255.7v-62.3h15.3v62.3H594.9z"/>
	<path class="st1" d="M638.1,255.7v-49.2h-20v-13.1h55.4v13.1h-20v49.2H638.1z"/>
	<path class="st1" d="M701.4,255.7v-23.6l-25.3-38.7h17.6l15.8,25.5l15.9-25.5h16.6L716.7,232v23.7H701.4z"/>
</g>
</svg>
