<?xml version="1.0" encoding="utf-8"?>
<!-- Generator: Adobe Illustrator 27.0.1, SVG Export Plug-In . SVG Version: 6.00 Build 0)  -->
<svg version="1.1" id="Ebene_1" xmlns="http://www.w3.org/2000/svg" xmlns:xlink="http://www.w3.org/1999/xlink" x="0px" y="0px"
	 viewBox="0 0 40 40" style="enable-background:new 0 0 40 40;" xml:space="preserve">
<style type="text/css">
	.st0{fill:#FFA300;}
	.st1{fill:#FFFFFF;}
</style>
<circle id="Ellipse_36" class="st0" cx="20" cy="20" r="20"/>
<path class="st1" d="M22.8,20l7.1-7.1c0.8-0.8,0.8-2,0-2.8c-0.8-0.8-2-0.8-2.8,0L20,17.2l-7.1-7.1c-0.8-0.8-2-0.8-2.8,0
	c-0.8,0.8-0.8,2,0,2.8l7.1,7.1l-7.1,7.1c-0.8,0.8-0.8,2,0,2.8c0.4,0.4,0.9,0.6,1.4,0.6s1-0.2,1.4-0.6l7.1-7.1l7.1,7.1
	c0.4,0.4,0.9,0.6,1.4,0.6s1-0.2,1.4-0.6c0.8-0.8,0.8-2,0-2.8L22.8,20z"/>
</svg>
