<?xml version="1.0" encoding="utf-8"?>
<!-- Generator: Adobe Illustrator 27.0.1, SVG Export Plug-In . SVG Version: 6.00 Build 0)  -->
<svg version="1.1" id="Ebene_1" xmlns="http://www.w3.org/2000/svg" xmlns:xlink="http://www.w3.org/1999/xlink" x="0px" y="0px"
	 viewBox="0 0 527.3 66.7" style="enable-background:new 0 0 527.3 66.7;" xml:space="preserve">
<style type="text/css">
	.st0{fill:#00843D;}
</style>
<g>
	<polygon class="st0" points="29.2,20.2 16.6,60.3 4.1,20.2 0,20.2 14.7,66 18.4,66 33,20.2 	"/>
	<polygon class="st0" points="38,20.2 38,66 60.8,66 60.8,62.7 41.8,62.7 41.8,43.6 57.9,43.6 57.9,40.5 41.8,40.5 41.8,23.5 
		60.5,23.5 60.5,20.2 	"/>
	<polygon class="st0" points="66.6,20.2 66.6,66 88.1,66 88.1,62.7 70.4,62.7 70.4,20.2 	"/>
	<path class="st0" d="M152.8,44.1h-7.9V23.5h7.9c6.7,0,11.1,4.6,11.1,10.3C163.9,39.4,159.5,44.1,152.8,44.1 M167.7,33.6
		c0-7.4-5.9-13.4-14.9-13.4h-11.6V66h3.7V47.1h9.9l9.4,18.9h4.4l-10.3-20C164.1,44.2,167.7,39.3,167.7,33.6"/>
	<path class="st0" d="M196.5,63.1c-11.2,0-19.8-8.7-19.8-20c0-8.2,4.5-14.9,11.2-18.1l7.3,18.6c0.2,0.6,0.8,0.9,1.3,0.9
		c0.2,0,0.4,0,0.5-0.1c0.7-0.3,1.1-1.1,0.8-1.9L190.6,24c1.9-0.6,3.9-0.9,5.9-0.9c11.1,0,19.8,8.7,19.8,20S207.7,63.1,196.5,63.1
		 M131.7,41.7h-16.7L125.1,28C128.9,31.4,131.3,36.2,131.7,41.7 M112,63.1c-11.2,0-19.8-8.7-19.8-20s8.6-20,19.8-20
		c4.1,0,7.8,1.2,10.9,3.2l-12,16c-0.3,0.4-0.4,1-0.1,1.5c0.2,0.5,0.7,0.8,1.3,0.8h19.6C131,55.2,122.6,63.1,112,63.1 M196.6,19.5
		c-2.6,0-5,0.4-7.3,1.1l-4.6-11.9c-0.4-1-1.4-1.7-2.5-1.7h-1.2c0,0,0,0,0,0l1.9,4.9h-47.6l-1.3-3.2c-0.4-1-1.4-1.7-2.5-1.7h-1.2
		l2.4,6.2L125,23.3c-3.7-2.4-8.2-3.8-13-3.8c-13.3,0-23.8,10.4-23.8,23.6s10.3,23.5,23.6,23.5c13.4,0,23.8-10.4,23.8-23.6
		c0-7.3-3.2-13.7-8.2-18l7.6-10.1h49l2.6,6.8c-8.2,3.7-13.7,11.8-13.7,21.5c0,13.2,10.3,23.5,23.6,23.5c13.4,0,23.8-10.4,23.8-23.6
		C220.2,29.8,209.9,19.5,196.6,19.5"/>
	<path class="st0" d="M236.6,25.5l7.5,24h-15L236.6,25.5z M234.9,20.2L220.2,66h3.9l4.3-13.6H245l4.3,13.6h4.1l-14.7-45.8H234.9z"/>
	<path class="st0" d="M281.4,50.6c0,7.7-3.7,12.2-10.7,12.2H262V23.5h8.7c6.9,0,10.7,4.5,10.7,12.2V50.6z M270.9,20.2h-12.6V66h12.4
		c9.2,0,14.4-5.6,14.4-15.5V35.6C285.2,25.7,280,20.2,270.9,20.2"/>
	<path class="st0" d="M181.1,2.9h10h1.2c2.4,0,4.5,1.7,4.7,4.1c0.2,1.9-0.8,3.6-2.3,4.4c-1.2,0.7-1.7,2-1.2,3.3l0.1,0.1
		c3.8-0.6,6.7-4,6.3-8c-0.3-3.9-3.8-6.8-7.7-6.8h-1.2h-13l0.5,1.2C179,2.2,180,2.9,181.1,2.9"/>
	<path class="st0" d="M130.4,2.9H142l-0.5-1.2c-0.4-1-1.4-1.7-2.5-1.7h-11.7l0.5,1.2C128.2,2.2,129.3,2.9,130.4,2.9"/>
	<path class="st0" d="M527.3,66.3v-2.5h-14.6V40.4h-2.8v25.9H527.3z M485.2,66.3V54.5h14.8v11.7h2.8V40.4h-2.8V52h-14.8V40.4h-2.8
		v25.9H485.2z M477,66.3v-2.5h-15v-9.3h10.3V52H462v-9h14.8v-2.5h-17.7v25.9H477z M449.2,65.7c1.5-0.7,2.6-1.6,3.5-2.8
		c0.8-1.2,1.3-2.5,1.3-4c0-1.9-0.6-3.5-1.9-4.6c-1.2-1.1-3.2-1.9-6-2.4l-4.1-0.7c-1.7-0.3-3-0.7-3.7-1.4c-0.8-0.6-1.1-1.5-1.1-2.7
		c0-0.9,0.3-1.7,0.8-2.4c0.5-0.7,1.3-1.3,2.2-1.7c0.9-0.4,2-0.6,3.2-0.6c1.5,0,3,0.3,4.5,0.8c1.5,0.5,2.9,1.3,4.2,2.3l1.5-2.2
		c-1.6-1.1-3.2-2-4.9-2.5c-1.6-0.5-3.4-0.8-5.4-0.8c-1.7,0-3.3,0.3-4.6,1c-1.3,0.6-2.4,1.5-3.1,2.6c-0.8,1.1-1.1,2.4-1.1,3.9
		c0,1.7,0.5,3.1,1.6,4.1c1.1,1,2.8,1.7,5.2,2.2l4.2,0.7c2.1,0.4,3.6,0.9,4.5,1.6c0.9,0.7,1.3,1.7,1.3,3c0,1-0.3,1.9-0.9,2.7
		c-0.6,0.8-1.4,1.4-2.5,1.9c-1,0.5-2.2,0.7-3.6,0.7c-1.7,0-3.2-0.3-4.6-0.9c-1.4-0.6-2.8-1.7-4.4-3.1l-1.7,2.1
		c1.6,1.5,3.3,2.6,5,3.3c1.7,0.7,3.6,1.1,5.6,1.1C446.1,66.7,447.7,66.3,449.2,65.7 M425.5,65.7c1.5-0.7,2.6-1.6,3.5-2.8
		c0.8-1.2,1.3-2.5,1.3-4c0-1.9-0.6-3.5-1.9-4.6c-1.2-1.1-3.2-1.9-6-2.4l-4.1-0.7c-1.7-0.3-3-0.7-3.7-1.4c-0.8-0.6-1.1-1.5-1.1-2.7
		c0-0.9,0.3-1.7,0.8-2.4c0.5-0.7,1.3-1.3,2.2-1.7c0.9-0.4,2-0.6,3.2-0.6c1.5,0,3,0.3,4.5,0.8c1.5,0.5,2.9,1.3,4.2,2.3l1.5-2.2
		c-1.6-1.1-3.2-2-4.9-2.5c-1.7-0.5-3.4-0.8-5.4-0.8c-1.7,0-3.3,0.3-4.6,1c-1.3,0.6-2.4,1.5-3.1,2.6c-0.8,1.1-1.1,2.4-1.1,3.9
		c0,1.7,0.5,3.1,1.6,4.1c1.1,1,2.8,1.7,5.2,2.2l4.2,0.7c2.1,0.4,3.6,0.9,4.5,1.6c0.9,0.7,1.3,1.7,1.3,3c0,1-0.3,1.9-0.9,2.7
		c-0.6,0.8-1.4,1.4-2.5,1.9c-1,0.5-2.2,0.7-3.6,0.7c-1.7,0-3.2-0.3-4.6-0.9c-1.4-0.6-2.8-1.7-4.4-3.1l-1.7,2.1
		c1.6,1.5,3.3,2.6,5,3.3c1.7,0.7,3.6,1.1,5.6,1.1C422.3,66.7,424,66.3,425.5,65.7 M389.5,63.3c-1.2-0.5-2.3-1.3-3.2-2.3
		c-0.9-1-1.6-2.1-2.1-3.4c-0.5-1.3-0.8-2.7-0.8-4.2c0-1.5,0.3-2.9,0.8-4.2c0.5-1.3,1.2-2.4,2.1-3.4c0.9-1,2-1.7,3.2-2.3
		c1.2-0.5,2.5-0.8,3.9-0.8s2.7,0.3,3.9,0.8s2.3,1.3,3.2,2.3c0.9,1,1.6,2.1,2.1,3.4c0.5,1.3,0.8,2.7,0.8,4.2c0,1.5-0.3,2.9-0.8,4.2
		c-0.5,1.3-1.2,2.5-2.1,3.4c-0.9,1-2,1.7-3.2,2.3c-1.2,0.5-2.5,0.8-3.9,0.8S390.7,63.8,389.5,63.3 M398.5,65.7
		c1.6-0.7,2.9-1.6,4.1-2.8c1.2-1.2,2.1-2.6,2.8-4.2c0.7-1.6,1-3.4,1-5.2c0-1.9-0.3-3.6-1-5.2c-0.7-1.6-1.6-3-2.8-4.2
		c-1.2-1.2-2.5-2.2-4.1-2.8c-1.6-0.7-3.2-1-5-1c-1.8,0-3.5,0.3-5,1c-1.5,0.7-2.9,1.6-4.1,2.8c-1.2,1.2-2.1,2.6-2.8,4.2
		c-0.7,1.6-1,3.4-1,5.2c0,1.9,0.3,3.6,1,5.2c0.7,1.6,1.6,3,2.8,4.2c1.2,1.2,2.5,2.2,4.1,2.8c1.6,0.7,3.2,1,5,1
		C395.2,66.7,396.9,66.3,398.5,65.7 M360.1,42.9h7.5c1.8,0,3.2,0.5,4.2,1.4c1,0.9,1.5,2.2,1.5,3.8c0,1.6-0.5,2.9-1.5,3.8
		c-1,0.9-2.4,1.4-4.2,1.4h-7.5V42.9z M360.1,66.3V55.7h7.8c1.7,0,3.1-0.3,4.4-0.9c1.2-0.6,2.2-1.5,2.9-2.7c0.7-1.2,1-2.5,1-4
		c0-1.6-0.3-2.9-1-4c-0.7-1.1-1.6-2-2.9-2.7c-1.2-0.6-2.7-0.9-4.4-0.9h-10.7v25.9H360.1z M334.1,66.3V55.8l10.1-15.4H341l-8.3,12.8
		l-8.2-12.8h-3.3l10,15.3v10.6H334.1z M303.3,54h7.7c1.8,0,3.2,0.4,4.2,1.3c1,0.9,1.6,2.1,1.6,3.5c0,1.5-0.5,2.7-1.6,3.6
		c-1.1,0.9-2.5,1.3-4.2,1.3h-7.7V54z M303.3,42.8h7.4c1.6,0,2.8,0.4,3.8,1.2c0.9,0.8,1.4,1.9,1.4,3.2c0,1.4-0.5,2.4-1.4,3.2
		c-0.9,0.8-2.2,1.2-3.8,1.2h-7.4V42.8z M311.3,66.3c1.7,0,3.2-0.3,4.4-0.9c1.3-0.6,2.2-1.4,2.9-2.5c0.7-1.1,1-2.3,1-3.8
		c0-1.6-0.5-2.9-1.5-4c-1-1.1-2.4-1.8-4.1-2.2c1.4-0.4,2.5-1.1,3.3-2.2c0.8-1,1.2-2.2,1.2-3.7c0-1.3-0.3-2.5-1-3.5
		c-0.6-1-1.5-1.7-2.7-2.3c-1.2-0.5-2.5-0.8-4.1-0.8h-10.5v25.9H311.3z"/>
</g>
</svg>
