<?xml version="1.0" encoding="utf-8"?>
<!-- Generator: Adobe Illustrator 26.3.1, SVG Export Plug-In . SVG Version: 6.00 Build 0)  -->
<svg version="1.1" id="complete" xmlns="http://www.w3.org/2000/svg" xmlns:xlink="http://www.w3.org/1999/xlink" x="0px" y="0px"
	 viewBox="0 0 4622.5 439" style="enable-background:new 0 0 4622.5 439;" xml:space="preserve">
<style type="text/css">
	.st0{fill:#FFA300;}
	.st1{fill:#00843D;}
	.st2{fill:#FFFFFF;}
</style>
<path id="heute" class="st0" d="M2057,406.7c5.8,0,10.5-4.7,10.5-10.5c0-7.2-9.4-17.7-9.8-18.2c-0.3-0.4-0.9-0.4-1.3-0.1
	c0,0,0,0-0.1,0.1c-0.4,0.4-9.8,11-9.8,18.2C2046.5,401.9,2051.2,406.6,2057,406.7z M2057,390.9c2.9,0,5.3,2.4,5.3,5.3
	c0,2.9-2.4,5.3-5.3,5.3c-2.9,0-5.3-2.4-5.3-5.3C2051.7,393.2,2054.1,390.9,2057,390.9z"/>
<path id="morgen" class="st0" d="M2542,102.2c5.8,0,10.5-4.7,10.5-10.5c0-7.2-9.4-17.7-9.8-18.2c-0.3-0.4-0.9-0.4-1.3-0.1
	c0,0,0,0-0.1,0.1c-0.4,0.4-9.8,11-9.8,18.2C2531.5,97.4,2536.2,102.1,2542,102.2z M2542,86.4c2.9,0,5.3,2.4,5.3,5.3
	c0,2.9-2.4,5.3-5.3,5.3c-2.9,0-5.3-2.4-5.3-5.3C2536.7,88.7,2539.1,86.4,2542,86.4z"/>
<path id="gestern" class="st0" d="M1766,294.3c-5.8,0-10.5,4.7-10.5,10.5c0,7.2,9.4,17.7,9.8,18.2c0.3,0.4,0.9,0.4,1.3,0.1
	c0,0,0,0,0.1-0.1c0.4-0.4,9.8-11,9.8-18.2C1776.5,299,1771.8,294.3,1766,294.3z M1766,310c-2.9,0-5.3-2.4-5.3-5.3s2.4-5.3,5.3-5.3
	s5.3,2.4,5.3,5.3C1771.3,307.7,1768.9,310,1766,310z"/>
<g id="street">
	<path id="bg" class="st1" d="M2397.2,377.8H-0.1v-54h2397.3c27.1,0,49.2-22.1,49.2-49.2c0-27.2-22.1-49.2-49.2-49.2h-81.8
		c-57-0.2-103.2-46.7-103-103.6c0.1-27.4,10.8-53.2,30.2-72.6s45.2-30.1,72.6-30.2l2307.3-0.2v54H2315.4
		c-26.9,0.1-48.9,22.1-49,49.1c0,13.2,5,25.5,14.3,34.9s21.6,14.5,34.8,14.5h81.7c56.9,0,103.2,46.3,103.2,103.3
		C2500.4,331.5,2454.1,377.8,2397.2,377.8z"/>
	<path id="white" class="st2" d="M2397.2,375.8H-0.1v-50h2397.3c28.2,0,51.2-23,51.2-51.2s-23-51.2-51.2-51.2h-81.8
		c-55.9-0.2-101.2-45.8-101-101.6c0.1-26.9,10.6-52.2,29.6-71.2s44.3-29.6,71.2-29.7h2307.3v50H2315.4c-28,0.1-50.9,23-51,51.1
		c0,13.7,5.2,26.6,14.9,36.3s22.5,15.1,36.2,15.1h81.7c55.8,0,101.2,45.4,101.2,101.3C2498.4,330.4,2453,375.8,2397.2,375.8z"/>
	<path id="outline" class="st1" d="M2359.9,351.8h-20v-2h20V351.8z M2299.9,351.8h-20v-2h20V351.8z M2239.9,351.8h-20v-2h20V351.8z
		 M2179.9,351.8h-20v-2h20V351.8z M2119.9,351.8h-20v-2h20V351.8z M2059.9,351.8h-20v-2h20V351.8z M1999.9,351.8h-20v-2h20V351.8z
		 M1939.9,351.8h-20v-2h20V351.8z M1879.9,351.8h-20v-2h20V351.8z M1819.9,351.8h-20v-2h20V351.8z M1759.9,351.8h-20v-2h20V351.8z
		 M1699.9,351.8h-20v-2h20V351.8z M1639.9,351.8h-20v-2h20V351.8z M1579.9,351.8h-20v-2h20V351.8z M1519.9,351.8h-20v-2h20V351.8z
		 M1459.9,351.8h-20v-2h20V351.8z M1399.9,351.8h-20v-2h20V351.8z M1339.9,351.8h-20v-2h20V351.8z M1279.9,351.8h-20v-2h20V351.8z
		 M1219.9,351.8h-20v-2h20V351.8z M1159.9,351.8h-20v-2h20V351.8z M1099.9,351.8h-20v-2h20V351.8z M1039.9,351.8h-20v-2h20V351.8z
		 M979.9,351.8h-20v-2h20V351.8z M919.9,351.8h-20v-2h20V351.8z M859.9,351.8h-20v-2h20V351.8z M799.9,351.8h-20v-2h20V351.8z
		 M739.9,351.8h-20v-2h20V351.8z M679.9,351.8h-20v-2h20V351.8z M619.9,351.8h-20v-2h20V351.8z M559.9,351.8h-20v-2h20V351.8z
		 M499.9,351.8h-20v-2h20V351.8z M439.9,351.8h-20v-2h20V351.8z M379.9,351.8h-20v-2h20V351.8z M319.9,351.8h-20v-2h20V351.8z
		 M259.9,351.8h-20v-2h20V351.8z M199.9,351.8h-20v-2h20V351.8z M139.9,351.8h-20v-2h20V351.8z M79.9,351.8h-20v-2h20V351.8z
		 M19.9,351.8h-20v-2h20V351.8z M2399.9,351.7l-0.1-2c6.6-0.2,13.1-1.3,19.4-3.2l0.6,1.9C2413.4,350.4,2406.7,351.5,2399.9,351.7z
		 M2453.8,327.1l-1.5-1.4c4.5-4.8,8.3-10.2,11.4-16l1.8,0.9C2462.3,316.6,2458.4,322.2,2453.8,327.1z M2472.4,271.7
		c-0.2-6.6-1.4-13.1-3.3-19.4l1.9-0.6c2,6.4,3.1,13.1,3.4,19.9L2472.4,271.7z M2448.2,219.3c-4.8-4.5-10.2-8.3-16.1-11.4l0.9-1.8
		c6,3.1,11.5,7.1,16.5,11.7L2448.2,219.3z M2394.1,199.3h-20v-2h20V199.3z M2334.1,199.3h-18.7c-0.4,0-0.9,0-1.3,0v-2
		c0.4,0,0.8,0,1.3,0h18.7V199.3z M2275.6,188.1c-5.8-3.5-11.1-7.8-15.8-12.7l1.4-1.4c4.6,4.8,9.7,8.9,15.3,12.3L2275.6,188.1z
		 M2240.6,140.3c-1.4-6-2.2-12.1-2.2-18.3v-0.3c0-0.5,0-1,0-1.5h2c0,0.5,0,1,0,1.5v0.3c0,6,0.7,12,2.1,17.8L2240.6,140.3z
		 M2251.4,82.9l-1.7-1c3.5-5.8,7.8-11.1,12.7-15.7l1.4,1.4C2259,72.1,2254.8,77.2,2251.4,82.9z M2298,48.9l-0.5-1.9
		c5.8-1.4,11.8-2.1,17.8-2.1h2.3v2h-2.3C2309.5,46.8,2303.7,47.5,2298,48.9z M4597.6,46.8h-20v-2h20V46.8z M4537.6,46.8h-20v-2h20
		V46.8z M4477.6,46.8h-20v-2h20V46.8z M4417.6,46.8h-20v-2h20V46.8z M4357.6,46.8h-20v-2h20V46.8z M4297.6,46.8h-20v-2h20V46.8z
		 M4237.6,46.8h-20v-2h20V46.8z M4177.6,46.8h-20v-2h20V46.8z M4117.6,46.8h-20v-2h20V46.8z M4057.6,46.8h-20v-2h20V46.8z
		 M3997.6,46.8h-20v-2h20V46.8z M3937.6,46.8h-20v-2h20V46.8z M3877.6,46.8h-20v-2h20V46.8z M3817.6,46.8h-20v-2h20V46.8z
		 M3757.6,46.8h-20v-2h20V46.8z M3697.6,46.8h-20v-2h20V46.8z M3637.6,46.8h-20v-2h20V46.8z M3577.6,46.8h-20v-2h20V46.8z
		 M3517.6,46.8h-20v-2h20V46.8z M3457.6,46.8h-20v-2h20V46.8z M3397.6,46.8h-20v-2h20V46.8z M3337.6,46.8h-20v-2h20V46.8z
		 M3277.6,46.8h-20v-2h20V46.8z M3217.6,46.8h-20v-2h20V46.8z M3157.6,46.8h-20v-2h20V46.8z M3097.6,46.8h-20v-2h20V46.8z
		 M3037.6,46.8h-20v-2h20V46.8z M2977.6,46.8h-20v-2h20V46.8z M2917.6,46.8h-20v-2h20V46.8z M2857.6,46.8h-20v-2h20V46.8z
		 M2797.6,46.8h-20v-2h20V46.8z M2737.6,46.8h-20v-2h20V46.8z M2677.6,46.8h-20v-2h20V46.8z M2617.6,46.8h-20v-2h20V46.8z
		 M2557.6,46.8h-20v-2h20V46.8z M2497.6,46.8h-20v-2h20V46.8z M2437.6,46.8h-20v-2h20V46.8z M2377.6,46.8h-20v-2h20V46.8z"/>
</g>
</svg>
