<svg xmlns="http://www.w3.org/2000/svg" viewBox="0 0 16 16"><defs><style>.a{fill:#2867b2;}.b{fill:#fff;}</style></defs><path class="a" d="M0,1.15A1.16,1.16,0,0,1,1.18,0H14.82A1.16,1.16,0,0,1,16,1.15v13.7A1.16,1.16,0,0,1,14.82,16H1.18A1.16,1.16,0,0,1,0,14.85V1.15Z"/><path class="b" d="M4.82,13.39V6.17H2.42v7.22ZM3.62,5.18a1.25,1.25,0,1,0,0-2.49,1.25,1.25,0,1,0,0,2.49Zm2.53,8.21h2.4v-4a1.76,1.76,0,0,1,.08-.59A1.31,1.31,0,0,1,9.86,7.9c.87,0,1.22.66,1.22,1.63v3.86h2.4V9.25C13.48,7,12.29,6,10.71,6A2.39,2.39,0,0,0,8.53,7.22h0v-1H6.15c0,.68,0,7.22,0,7.22Z"/></svg>